<svg id="Capa_1" enable-background="new 0 0 512.005 512.005" height="512" viewBox="0 0 512.005 512.005" width="512" xmlns="http://www.w3.org/2000/svg"><g><g><g><ellipse cx="197.896" cy="114.378" fill="#3f5959" rx="60.07" ry="68.056"/><g><path d="m401.099 429.204v75.301h-290.193v-75.301c0-68.745 55.729-124.474 124.474-124.474h41.244c68.746-.001 124.475 55.728 124.475 124.474z" fill="#fcb44d"/><path d="m401.102 429.205v75.3h-31.54v-75.3c0-68.75-55.73-124.48-124.47-124.48h31.53c68.75 0 124.48 55.73 124.48 124.48z" fill="#fb9927"/><path d="m310.934 322.145c0 30.34-24.6 54.93-54.93 54.93s-54.93-24.59-54.93-54.93c0-4.5.54-8.88 1.57-13.07 10.43-2.84 21.41-4.35 32.74-4.35h41.24c11.33 0 22.31 1.51 32.74 4.35 1.03 4.19 1.57 8.57 1.57 13.07z" fill="#fdb0a0"/><path d="m280.164 271.005v42.99c0 13.34-10.82 24.16-24.16 24.16-13.35 0-24.17-10.82-24.17-24.16v-42.99z" fill="#fdb0a0"/><path d="m280.164 271.005v42.15c-7.31 3.3-15.5 5.15-24.16 5.15s-16.86-1.85-24.17-5.15v-42.15z" fill="#f9a08f"/><g><g><g><g><g><g><g fill="#fdb0a0"><circle cx="351.739" cy="180.994" r="30.24"/><circle cx="160.266" cy="180.994" r="30.24"/></g></g></g></g><path d="m343.187 136.356v62.974c0 48.082-38.449 87.916-86.532 88.277-48.455.349-87.847-38.81-87.847-87.183v-64.067c0-48.152 39.043-87.183 87.195-87.183 24.082 0 45.872 9.761 61.647 25.536 15.777 15.786 25.537 37.576 25.537 61.646z" fill="#ffcec0"/><path d="m343.192 136.355v26.22c-12.18 4.52-25.97 6.97-40.72 6.97-.01 0-.01 0-.01 0-13.5 0-27.12-2.04-40.47-6.07-33.86-10.22-66.85-39.3-81.18-71.29 15.16-25.74 43.16-43.01 75.19-43.01 24.08 0 45.87 9.76 61.65 25.53 15.77 15.79 25.54 37.58 25.54 61.65z" fill="#fdb0a0"/></g></g></g></g><path d="m356 55.342c9.958-9.12 14.698-18.927 11.9-27.413-5.784-17.541-138.761-42.524-170.734 17.354-16.289 30.504 24.361 85.081 70.609 99.041s92.797-1.039 103.97-33.5c6.404-18.609-.225-38.909-15.745-55.482z" fill="#557983"/><path d="m371.747 110.825c-11.185 32.455-57.733 47.454-103.975 33.505-3.184-.953-6.336-2.117-9.455-3.442 35.429 1.859 66.364-12.898 75.205-38.565 5.36-15.581 1.583-32.351-8.901-47.122-3.446-4.855-3.331-11.273.197-16.069 4.967-6.751 6.876-13.562 4.857-19.691-1.115-3.394-6.966-7.047-15.92-10.328 28.77 3.443 51.802 11.75 54.145 18.813 2.796 8.485-1.939 18.296-11.896 27.412 15.517 16.584 22.144 36.884 15.743 55.487z" fill="#3f5959"/></g></g><path d="m311.753 245.338c0 28.847-24.96 52.232-55.749 52.232s-55.749-23.385-55.749-52.232 40.86-61.661 55.749-61.661 55.749 32.814 55.749 61.661z" fill="#eaf6ff"/><path d="m311.754 245.335c0 28.85-24.96 52.24-55.75 52.24-4.15 0-8.2-.43-12.09-1.24 24.98-5.16 43.67-26.04 43.67-51 0-22.83-25.61-48.15-43.66-57.71 4.75-2.52 8.98-3.95 12.08-3.95 14.89-.001 55.75 32.82 55.75 61.66z" fill="#cbe5e7"/><g><path d="m287.666 297.695v-.682c4.35-2.386 8.37-5.246 11.985-8.508.913.371 1.863.556 2.805.556 2.677 0 5.268-1.438 6.619-3.963 1.147-2.145 1.139-4.594.203-6.648.054-.036.112-.06.166-.097 20.47-14.226 34.392-35.739 39.29-59.752.996.079 1.995.133 3 .133 20.81 0 37.74-16.93 37.74-37.74 0-20.031-15.69-36.461-35.425-37.662 11.908-7.571 20.601-17.908 24.786-30.068 6.464-18.779 1.844-39.451-12.647-57.605 8.833-10.081 11.966-20.582 8.833-30.079-5.044-15.299-45.232-22.728-68.184-24.706-16.891-1.456-42.034-1.811-65.887 4.766-22.959 6.33-39.382 17.589-48.891 33.472-28.011 2.683-51.677 24.521-59.25 54.964-1 4.02 1.448 8.089 5.468 9.089.608.151 1.217.224 1.816.224 3.364 0 6.423-2.28 7.272-5.691 5.351-21.51 20.475-37.598 38.967-42.393-.629 5.071-.371 10.477.771 16.142-16.629 17.635-25.789 40.618-25.789 64.916v6.922c-.351-.01-.701-.029-1.052-.029-2.793 0-5.513.314-8.135.893-2.175-4.42-3.855-9.123-5.002-14.039-.94-4.033-4.97-6.542-9.008-5.6-4.034.941-6.541 4.974-5.6 9.008 1.362 5.838 3.342 11.442 5.898 16.733-9.609 6.848-15.894 18.073-15.894 30.745 0 20.81 16.93 37.74 37.74 37.74.941 0 1.878-.047 2.811-.116 4.719 24.218 18.757 45.801 39.558 60.014-.854 2.016-.825 4.386.288 6.467 1.352 2.526 3.942 3.963 6.619 3.963.944 0 1.897-.187 2.813-.559 3.615 3.262 7.636 6.123 11.986 8.51v.679c-24.164 2.005-47.165 10.577-66.808 24.949-3.343 2.446-4.07 7.139-1.624 10.481 1.469 2.008 3.748 3.072 6.059 3.072 1.537 0 3.088-.471 4.423-1.448 8.451-6.183 17.608-11.142 27.239-14.825-.026.741-.053 1.482-.053 2.224 0 18.966 8.512 35.971 21.903 47.43h-80.735c2.286-3.838 4.792-7.573 7.538-11.178 2.51-3.295 1.874-8.001-1.421-10.511-3.296-2.51-8-1.874-10.511 1.421-17.622 23.132-26.936 50.761-26.936 79.898v75.299c0 4.142 3.358 7.5 7.5 7.5s7.5-3.358 7.5-7.5v-18.885h35.284v18.885c0 4.142 3.358 7.5 7.5 7.5s7.5-3.358 7.5-7.5v-18.885h174.618v18.885c0 4.142 3.358 7.5 7.5 7.5s7.5-3.358 7.5-7.5v-18.885h35.284v18.885c0 4.142 3.358 7.5 7.5 7.5s7.5-3.358 7.5-7.5v-75.299c-.001-68.924-52.779-125.878-120.93-131.512zm63.145 127.38c-4.142 0-7.5 3.358-7.5 7.5v10.559h-174.618v-10.559c0-4.142-3.358-7.5-7.5-7.5s-7.5 3.358-7.5 7.5v10.559h-35.283v-13.929c0-5.794.438-11.516 1.259-17.146h272.68c.821 5.599 1.246 11.324 1.246 17.146v13.929h-35.284v-10.559c0-4.142-3.358-7.5-7.5-7.5zm26.493-55.5h-80.773c13.391-11.459 21.903-28.464 21.903-47.43 0-.757-.026-1.513-.054-2.269 24.87 9.475 45.575 27.165 58.924 49.699zm-152.065-89.806c.849-2.014.818-4.378-.294-6.455-1.8-3.365-5.799-4.79-9.274-3.467-4.998-7.045-7.917-15.465-7.917-24.51 0-6.559 2.798-14.118 7.938-21.876.86.325 1.751.483 2.633.483 2.677 0 5.268-1.437 6.619-3.963 1.342-2.507 1.113-5.435-.344-7.657 1.026-1.095 2.079-2.187 3.189-3.272 11.927-11.663 24.049-17.875 28.214-17.875s16.287 6.212 28.214 17.875c1.107 1.083 2.157 2.172 3.181 3.264-1.461 2.223-1.692 5.155-.349 7.665 1.352 2.526 3.942 3.963 6.619 3.963.886 0 1.781-.159 2.643-.486 5.141 7.759 7.94 15.32 7.94 21.879 0 9.046-2.92 17.467-7.919 24.513-3.477-1.331-7.481.095-9.284 3.463-1.113 2.079-1.142 4.447-.29 6.462-8.356 6.425-19.077 10.294-30.756 10.294-11.681.001-22.405-3.871-30.763-10.3zm149.235-98.775c0 12.539-10.201 22.74-22.74 22.74-.387 0-.772-.015-1.156-.035.066-1.453.11-2.91.11-4.373v-41.044c.348-.016.697-.029 1.045-.029 12.54.002 22.741 10.203 22.741 22.741zm-214.21 22.741c-12.539 0-22.74-10.201-22.74-22.74s10.201-22.74 22.74-22.74c.351 0 .702.012 1.052.029v42.138c0 1.097.023 2.19.06 3.281-.369.017-.74.032-1.112.032zm16.052-3.314v-64.06c0-17.664 5.759-34.498 16.342-48.325 13.142 28.51 42.648 54.322 72.948 63.468 6.037 1.822 12.225 3.216 18.392 4.144.378.057.753.084 1.125.084 3.649 0 6.848-2.667 7.407-6.386.616-4.096-2.205-7.916-6.301-8.532-5.458-.821-10.938-2.056-16.288-3.671-26.98-8.144-54.242-32.546-64.822-58.023-3.497-8.42-6.567-20.513-1.338-30.305 13.244-24.803 45.874-31.874 70.915-33.438 18.458-1.152 39.451.465 57.601 4.439 18.207 3.986 26.937 8.88 28.587 10.813 1.422 5.105-2.18 12.067-9.949 19.183-1.478 1.353-2.352 3.241-2.429 5.243s.651 3.952 2.021 5.414c14.229 15.194 19.377 32.658 14.126 47.915-5.529 16.064-22.326 28.083-44.931 32.148-4.077.733-6.787 4.632-6.054 8.709s4.632 6.791 8.709 6.054c4.639-.834 9.084-1.967 13.313-3.363v47.396c0 17.991-5.948 35.206-16.524 49.156.057-1.042.089-2.09.089-3.145 0-10.95-4.605-21.3-10.275-29.902 1.226-2.163 1.357-4.885.097-7.24-1.672-3.124-5.237-4.574-8.518-3.709-2.078-2.356-4.081-4.429-5.851-6.16-10.449-10.218-26.854-22.15-38.701-22.15s-28.252 11.932-38.701 22.15c-1.771 1.732-3.775 3.805-5.853 6.162-3.285-.871-6.855.579-8.528 3.706-1.262 2.358-1.128 5.084.103 7.249-5.667 8.6-10.269 18.947-10.269 29.893 0 1.261.056 2.51.138 3.753-10.621-13.751-16.581-30.77-16.581-48.67zm32.259 121.724c0-2.332.171-4.657.506-6.939 5.005-1.15 10.102-1.959 15.259-2.442v11.231c0 4.142 3.358 7.5 7.5 7.5s7.5-3.358 7.5-7.5v-21.044c5.313 1.372 10.897 2.12 16.665 2.12 5.767 0 11.349-.747 16.662-2.119v21.043c0 4.142 3.358 7.5 7.5 7.5s7.5-3.358 7.5-7.5v-11.243c5.196.485 10.29 1.304 15.258 2.44.336 2.287.51 4.616.51 6.953 0 26.153-21.277 47.43-47.43 47.43s-47.43-21.277-47.43-47.43zm176.217 62.43c1.67 4.053 3.117 8.22 4.331 12.485h-266.254c1.208-4.244 2.666-8.407 4.353-12.485zm-266.382 86.044v-12.485h35.284v12.485zm50.283 0v-12.485h174.618v12.485zm189.618 0v-12.485h35.284v12.485z"/><path d="m215.039 186.177h.045c4.121 0 7.475-3.329 7.499-7.456.024-4.142-3.313-7.52-7.456-7.544h-.083c-4.16-.027-7.479 3.314-7.503 7.456s3.356 7.52 7.498 7.544z"/><path d="m296.226 186.137c.061.006.124.006.186.01.179.014.357.029.538.03h.045c.258 0 .513-.013.765-.039 3.787-.379 6.744-3.575 6.744-7.462 0-3.86-2.917-7.036-6.667-7.451-.012-.001-.022-.004-.034-.005-.182-.019-.368-.025-.554-.031-.071-.002-.14-.011-.211-.012h-.028c-.002 0-.004 0-.006 0h-.084c-.084 0-.165.01-.248.012-.173.005-.346.009-.515.026-.015.002-.03.005-.045.007-3.744.396-6.636 3.555-6.658 7.411-.024 3.898 2.967 7.117 6.772 7.504z"/><path d="m251.504 251.123h9c4.142 0 7.5-3.358 7.5-7.5s-3.358-7.5-7.5-7.5h-9c-4.142 0-7.5 3.358-7.5 7.5s3.358 7.5 7.5 7.5z"/><path d="m274.396 262.769c0-4.142-3.358-7.5-7.5-7.5h-21.783c-4.142 0-7.5 3.358-7.5 7.5s3.358 7.5 7.5 7.5h21.783c4.142 0 7.5-3.358 7.5-7.5z"/></g></g></svg>