<?xml version="1.0"?>
<svg xmlns="http://www.w3.org/2000/svg" viewBox="0 0 64 64" width="512" height="512"><g id="world-covid19-global-coronavirus-protection"><path d="M32,32V20a44.487,44.487,0,0,1-14.753-2.4A45.5,45.5,0,0,0,15,32Z" style="fill:#005ece"/><path d="M32,32H49a45.5,45.5,0,0,0-2.247-14.4A44.487,44.487,0,0,1,32,20Z" style="fill:#006df0"/><path d="M32,32V44a44.483,44.483,0,0,1,14.753,2.4A45.5,45.5,0,0,0,49,32Z" style="fill:#005ece"/><path d="M32,32H15a45.5,45.5,0,0,0,2.247,14.4A44.483,44.483,0,0,1,32,44Z" style="fill:#004fac"/><path d="M32,3c6.315,0,11.822,5.878,14.753,14.6a28.282,28.282,0,0,0,7.656-4A28.942,28.942,0,0,0,32,3Z" style="fill:#57a4ff"/><path d="M32,3A28.942,28.942,0,0,0,9.591,13.593a28.282,28.282,0,0,0,7.656,4C20.178,8.878,25.685,3,32,3Z" style="fill:#005ece"/><path d="M32,61c-6.315,0-11.822-5.878-14.753-14.6a28.282,28.282,0,0,0-7.656,4A28.942,28.942,0,0,0,32,61Z" style="fill:#003f8a"/><path d="M32,61A28.942,28.942,0,0,0,54.409,50.407a28.282,28.282,0,0,0-7.656-4C43.822,55.122,38.315,61,32,61Z" style="fill:#005ece"/><path d="M32,61c6.315,0,11.822-5.878,14.753-14.6A44.483,44.483,0,0,0,32,44Z" style="fill:#004fac"/><path d="M17.247,46.4C20.178,55.122,25.685,61,32,61V44A44.483,44.483,0,0,0,17.247,46.4Z" style="fill:#00479b"/><path d="M3,32A28.88,28.88,0,0,0,9.591,50.407a28.282,28.282,0,0,1,7.656-4A45.5,45.5,0,0,1,15,32Z" style="fill:#00479b"/><path d="M17.247,17.6a28.282,28.282,0,0,1-7.656-4A28.88,28.88,0,0,0,3,32H15A45.5,45.5,0,0,1,17.247,17.6Z" style="fill:#004fac"/><path d="M46.753,46.4a28.282,28.282,0,0,1,7.656,4A28.88,28.88,0,0,0,61,32H49A45.5,45.5,0,0,1,46.753,46.4Z" style="fill:#006df0"/><path d="M46.753,17.6A45.5,45.5,0,0,1,49,32H61a28.88,28.88,0,0,0-6.591-18.407A28.282,28.282,0,0,1,46.753,17.6Z" style="fill:#2488ff"/><path d="M46.753,17.6C43.822,8.878,38.315,3,32,3V20A44.487,44.487,0,0,0,46.753,17.6Z" style="fill:#2488ff"/><path d="M32,3C25.685,3,20.178,8.878,17.247,17.6A44.487,44.487,0,0,0,32,20Z" style="fill:#006df0"/><path d="M43,23v6.5a12.345,12.345,0,0,1-.08,1.5,15.946,15.946,0,0,1-7.53,12.12c-.24.15-.48.29-.73.43L32,45l-2.66-1.45c-.25-.14-.49-.28-.73-.43A15.946,15.946,0,0,1,21.08,31,12.345,12.345,0,0,1,21,29.5V23l11-4Z" style="fill:#ffcd00"/><path d="M41,22.273V28.5a12.345,12.345,0,0,1-.08,1.5,15.946,15.946,0,0,1-7.53,12.12c-.24.15-.48.29-.73.43l-2.577,1.405L32,45l2.66-1.45c.25-.14.49-.28.73-.43A15.946,15.946,0,0,0,42.92,31,12.345,12.345,0,0,0,43,29.5V23Z" style="fill:#ebbf00"/><path d="M32,29a3,3,0,0,0-2.121,5.121h0a3,3,0,0,0,4.242,0h0A3,3,0,0,0,32,29Z" style="fill:#ed1c24"/><path d="M38,30a1,1,0,0,0-1,1H35.858a3.915,3.915,0,0,0-.425-1.019l.81-.81a1,1,0,1,0,1.414-1.414l-1.414-1.414a1,1,0,0,0-1.414,1.414l-.81.81A3.915,3.915,0,0,0,33,28.142V27a1,1,0,0,0,0-2H31a1,1,0,0,0,0,2v1.142a3.915,3.915,0,0,0-1.019.425l-.81-.81a1,1,0,0,0-1.414-1.414l-1.414,1.414a1,1,0,1,0,1.414,1.414l.81.81A3.915,3.915,0,0,0,28.142,31H27a1,1,0,0,0-2,0v2a1,1,0,0,0,2,0h1.142a3.915,3.915,0,0,0,.425,1.019l-.81.81a1,1,0,0,0-1.414,1.414l1.414,1.414a1,1,0,1,0,1.414-1.414l.81-.81A3.915,3.915,0,0,0,31,35.858V37a1,1,0,0,0,0,2h2a1,1,0,0,0,0-2V35.858a3.915,3.915,0,0,0,1.019-.425l.81.81a1,1,0,1,0,1.414,1.414l1.414-1.414a1,1,0,1,0-1.414-1.414l-.81-.81A3.915,3.915,0,0,0,35.858,33H37a1,1,0,0,0,2,0V31A1,1,0,0,0,38,30Zm-6,4a2,2,0,1,1,2-2A2,2,0,0,1,32,34Z" style="fill:#d80027"/></g></svg>
