<svg id="Layer_1_copy_3" height="512" viewBox="0 0 64 64" width="512" xmlns="http://www.w3.org/2000/svg" data-name="Layer 1 copy 3"><path d="m5 20h55v37h-55z" fill="#6a951f"/><path d="m1 20h62l-31-19z" fill="#23a8cc"/><path d="m3 20h59v4h-59z" fill="#9edfe0"/><path d="m3 53h59v4h-59z" fill="#9edfe0"/><path d="m28 24h8v29h-8z" fill="#fcc325"/><path d="m52 24h8v29h-8z" fill="#fcc325"/><path d="m1 57h62v5.938h-62z" fill="#23a8cc"/><path d="m5 24h8v29h-8z" fill="#fcc325"/><g fill="#043c49"><path d="m20 17h-1a1 1 0 0 1 0-2h1a1 1 0 0 1 0 2z"/><path d="m24 17h-1a1 1 0 0 1 0-2h1a1 1 0 0 1 0 2z"/><path d="m16 17h-1a1 1 0 0 1 0-2h1a1 1 0 0 1 0 2z"/><path d="m55 61h-1a1 1 0 0 1 0-2h1a1 1 0 0 1 0 2z"/><path d="m59 61h-1a1 1 0 0 1 0-2h1a1 1 0 0 1 0 2z"/><path d="m51 61h-1a1 1 0 0 1 0-2h1a1 1 0 0 1 0 2z"/><path d="m63 21h-62a1 1 0 0 1 -.522-1.853l31-19a1 1 0 0 1 1.045 0l31 19a1 1 0 0 1 -.523 1.853zm-58.455-2h54.91l-27.455-16.827z"/><path d="m63 63.938h-62a1 1 0 0 1 -1-1v-5.938a1 1 0 0 1 1-1h62a1 1 0 0 1 1 1v5.938a1 1 0 0 1 -1 1zm-61-2h60v-3.938h-60z"/><path d="m37 54h-10a1 1 0 0 1 0-2h10a1 1 0 0 1 0 2z"/><path d="m37 25h-10a1 1 0 0 1 0-2h10a1 1 0 0 1 0 2z"/><path d="m28 51a1 1 0 0 1 -1-1v-23a1 1 0 0 1 2 0v23a1 1 0 0 1 -1 1z"/><path d="m32 51a1 1 0 0 1 -1-1v-23a1 1 0 0 1 2 0v23a1 1 0 0 1 -1 1z"/><path d="m36 51a1 1 0 0 1 -1-1v-23a1 1 0 0 1 2 0v23a1 1 0 0 1 -1 1z"/><path d="m61 54h-10a1 1 0 0 1 0-2h10a1 1 0 0 1 0 2z"/><path d="m61 25h-10a1 1 0 0 1 0-2h10a1 1 0 0 1 0 2z"/><path d="m52 51a1 1 0 0 1 -1-1v-23a1 1 0 0 1 2 0v23a1 1 0 0 1 -1 1z"/><path d="m56 51a1 1 0 0 1 -1-1v-23a1 1 0 0 1 2 0v23a1 1 0 0 1 -1 1z"/><path d="m60 51a1 1 0 0 1 -1-1v-23a1 1 0 0 1 2 0v23a1 1 0 0 1 -1 1z"/><path d="m14 54h-10a1 1 0 0 1 0-2h10a1 1 0 0 1 0 2z"/><path d="m14 25h-10a1 1 0 0 1 0-2h10a1 1 0 0 1 0 2z"/><path d="m5 51a1 1 0 0 1 -1-1v-23a1 1 0 0 1 2 0v23a1 1 0 0 1 -1 1z"/><path d="m9 51a1 1 0 0 1 -1-1v-23a1 1 0 0 1 2 0v23a1 1 0 0 1 -1 1z"/><path d="m13 51a1 1 0 0 1 -1-1v-23a1 1 0 0 1 2 0v23a1 1 0 0 1 -1 1z"/></g></svg>