<svg height="512pt" viewBox="0 -53 512 512" width="512pt" xmlns="http://www.w3.org/2000/svg"><path d="m10 340h492l10 5v15c0 24.808594-20.191406 45-45 45h-422c-24.808594 0-45-20.191406-45-45v-15zm0 0" fill="#81e885"/><path d="m512 345v15c0 24.808594-20.191406 45-45 45h-165v-65h200zm0 0" fill="#5dc983"/><path d="m151 15v50h-120.078125v-50c0-8.28125 6.71875-15 15-15h90.078125c8.28125 0 15 6.71875 15 15zm0 0" fill="#3e5959"/><path d="m512 45v75l-10 5h-492l-10-5v-45c0-8.28125 6.71875-15 15-15h141.730469l25.847656-51.710938c2.542969-5.078124 7.742187-8.289062 13.421875-8.289062h271c24.808594 0 45 20.191406 45 45zm0 0" fill="#81e885"/><path d="m512 45v75l-10 5h-200v-125h165c24.808594 0 45 20.191406 45 45zm0 0" fill="#5dc983"/><path d="m0 120h512v225h-512zm0 0" fill="#3e5959"/><path d="m302 120h210v225h-210zm0 0" fill="#293939"/><path d="m302 105c-66.167969 0-120 53.832031-120 120s53.832031 120 120 120 120-53.832031 120-120-53.832031-120-120-120zm0 0" fill="#547983"/><path d="m422 225c0 54.261719-36.191406 100.21875-85.710938 115-10.867187 3.261719-22.378906 5-34.289062 5v-240c24.46875 0 47.25 7.359375 66.25 20 32.371094 21.5 53.75 58.300781 53.75 100zm0 0" fill="#3e5959"/><path d="m302 315c-49.625 0-90-40.375-90-90s40.375-90 90-90 90 40.375 90 90-40.375 90-90 90zm0 0" fill="#19c0ef"/><path d="m392 225c0 49.628906-40.371094 90-90 90v-180c49.628906 0 90 40.371094 90 90zm0 0" fill="#159be1"/><path d="m302 165c-33.085938 0-60 26.914062-60 60s26.914062 60 60 60 60-26.914062 60-60-26.914062-60-60-60zm0 0" fill="#30d9f6"/><path d="m362 225c0 33.078125-26.921875 60-60 60v-120c33.078125 0 60 26.921875 60 60zm0 0" fill="#19c0ef"/><path d="m302 255c-16.542969 0-30-13.457031-30-30s13.457031-30 30-30 30 13.457031 30 30-13.457031 30-30 30zm0 0" fill="#19c0ef"/><path d="m332 225c0 16.539062-13.460938 30-30 30v-60c16.539062 0 30 13.460938 30 30zm0 0" fill="#159be1"/><path d="m438 60h-61c-8.285156 0-15 6.714844-15 15s6.714844 15 15 15h61c8.285156 0 15-6.714844 15-15s-6.714844-15-15-15zm0 0" fill="#fed941"/></svg>