<svg xmlns="http://www.w3.org/2000/svg" xmlns:xlink="http://www.w3.org/1999/xlink" id="Capa_1" x="0" y="0" version="1.1" viewBox="0 0 512 512" xml:space="preserve" style="enable-background:new 0 0 512 512"><path style="fill:#fd003a" d="M257,0C116.3,0,0,114.3,0,255s116.3,257,257,257s255-116.3,255-257S397.7,0,257,0z"/><path style="fill:#dd0030" d="M512,255c0,140.7-114.3,257-255,257V0C397.7,0,512,114.3,512,255z"/><path style="fill:#e1e4fb" d="M373.7,329.099c11.7,11.7,11.7,30.901,0,42.601c-11.7,11.699-30.601,11.699-42.601,0L257,297.299	L180.901,371.7c-11.7,11.699-30.901,11.699-42.601,0c-11.7-11.7-11.7-30.901,0-42.601L214.701,255L138.3,180.899	c-11.7-11.699-11.7-30.899,0-42.599s30.601-11.7,42.601,0L257,212.699l74.099-74.399c12.001-11.7,30.901-11.7,42.601,0	s11.7,30.901,0,42.599L299.299,255L373.7,329.099z"/><path style="fill:#c5c9f7" d="M373.7,329.099c11.7,11.7,11.7,30.901,0,42.601c-11.7,11.699-30.601,11.699-42.601,0L257,297.299	v-84.6l74.099-74.399c12.001-11.7,30.901-11.7,42.601,0s11.7,30.901,0,42.599L299.299,255L373.7,329.099z"/></svg>