<svg id="Filled" height="512" viewBox="0 0 512 512" width="512" xmlns="http://www.w3.org/2000/svg"><path d="m24 96h464v320h-464z" fill="#2d85cc"/><path d="m456 264v96s-24 0-32 24h-336c-8-24-32-24-32-24v-208s24 0 32-24h336c8 24 32 24 32 24z" fill="#e9eef2"/><path d="m120 176h144v32h-144z" fill="#b6b9ba"/><path d="m408 336-32-32-32 32v-112h64z" fill="#d13330"/><circle cx="376" cy="224" fill="#eb423f" r="48"/><circle cx="376" cy="224" fill="#d13330" r="16"/><path d="m488 88h-464a8 8 0 0 0 -8 8v320a8 8 0 0 0 8 8h464a8 8 0 0 0 8-8v-320a8 8 0 0 0 -8-8zm-8 320h-448v-304h448z"/><path d="m56 368c.182 0 18.305.212 24.411 18.53a8 8 0 0 0 7.589 5.47h336a8 8 0 0 0 7.59-5.47c6.01-18.04 23.719-18.519 24.41-18.53a8 8 0 0 0 8-8v-208a8 8 0 0 0 -8-8c-.183 0-18.305-.212-24.41-18.53a8 8 0 0 0 -7.59-5.47h-336a8 8 0 0 0 -7.589 5.47c-6.011 18.04-23.72 18.519-24.411 18.53a8 8 0 0 0 -8 8v208a8 8 0 0 0 8 8zm8-208.975a42.674 42.674 0 0 0 29.378-23.025h325.244a42.676 42.676 0 0 0 29.378 23.025v193.95a42.676 42.676 0 0 0 -29.378 23.025h-325.244a42.674 42.674 0 0 0 -29.378-23.025z"/><path d="m120 216h144a8 8 0 0 0 8-8v-32a8 8 0 0 0 -8-8h-144a8 8 0 0 0 -8 8v32a8 8 0 0 0 8 8zm8-32h128v16h-128z"/><path d="m96 248h192a8 8 0 0 0 0-16h-192a8 8 0 0 0 0 16z"/><path d="m96 280h192a8 8 0 0 0 0-16h-192a8 8 0 0 0 0 16z"/><path d="m240 296h-96a8 8 0 0 0 0 16h96a8 8 0 0 0 0-16z"/><path d="m336 336a8 8 0 0 0 13.657 5.657l26.343-26.344 26.343 26.344a8 8 0 0 0 13.657-5.657v-72.862a56 56 0 1 0 -80 0zm45.657-37.657a8 8 0 0 0 -11.314 0l-18.343 18.344v-42.1a55.9 55.9 0 0 0 48 0v42.1zm-5.657-114.343a40 40 0 1 1 -40 40 40.045 40.045 0 0 1 40-40z"/><path d="m376 248a24 24 0 1 0 -24-24 24.027 24.027 0 0 0 24 24zm0-32a8 8 0 1 1 -8 8 8.009 8.009 0 0 1 8-8z"/><path d="m176 328h-32a8 8 0 0 0 0 16h32a8 8 0 0 0 0-16z"/><path d="m240 328h-32a8 8 0 0 0 0 16h32a8 8 0 0 0 0-16z"/></svg>