<svg id="Capa_1" enable-background="new 0 0 512 512" height="512" viewBox="0 0 512 512" width="512" xmlns="http://www.w3.org/2000/svg"><g><path d="m404.285 0h-296.571c-18.894 0-34.352 15.459-34.352 34.353v443.294c0 18.894 15.459 34.353 34.353 34.353h296.571c18.894 0 34.353-15.459 34.353-34.353v-443.294c-.001-18.894-15.46-34.353-34.354-34.353z" fill="#3f6d8e"/><path d="m108.388 477.647v-443.294c0-18.894 15.458-34.353 34.353-34.353h-35.026c-18.895 0-34.353 15.459-34.353 34.353v443.294c0 18.894 15.459 34.353 34.353 34.353h35.026c-18.895 0-34.353-15.459-34.353-34.353z" fill="#365e7d"/><path d="m110.015 66.816-3.158 3.739v376.946c0 .393.466.859.859.859h296.569c.394 0 .859-.465.859-.859 0-4.842 0-277.01 0-376.946l-5.648-3.739z" fill="#e4f6ff"/><path d="m151.393 447.501v-376.946l3.158-3.739h-44.536l-3.158 3.739v376.946c0 .393.466.859.859.859h44.536c-.394 0-.859-.465-.859-.859z" fill="#d3effb"/><path d="m186.574 191.673h-33.297c-4.687 0-8.487 3.8-8.487 8.487v33.298c0 4.687 3.8 8.487 8.487 8.487h33.297c4.687 0 8.487-3.8 8.487-8.487v-33.298c0-4.687-3.8-8.487-8.487-8.487z" fill="#ffe07d"/><g><path d="m367.21 210.47h-138.155c-4.267 0-7.726-3.459-7.726-7.726s3.459-7.726 7.726-7.726h138.155c4.267 0 7.726 3.459 7.726 7.726s-3.459 7.726-7.726 7.726z" fill="#3f6d8e"/></g><g><path d="m367.21 238.599h-138.155c-4.267 0-7.726-3.459-7.726-7.726s3.459-7.726 7.726-7.726h138.155c4.267 0 7.726 3.459 7.726 7.726s-3.459 7.726-7.726 7.726z" fill="#3f6d8e"/></g><path d="m186.574 105.446h-33.297c-4.687 0-8.487 3.8-8.487 8.487v33.298c0 4.687 3.8 8.487 8.487 8.487h33.297c4.687 0 8.487-3.8 8.487-8.487v-33.298c0-4.688-3.8-8.487-8.487-8.487z" fill="#ffe07d"/><g><path d="m367.21 124.243h-138.155c-4.267 0-7.726-3.459-7.726-7.726 0-4.268 3.459-7.726 7.726-7.726h138.155c4.267 0 7.726 3.459 7.726 7.726 0 4.268-3.459 7.726-7.726 7.726z" fill="#3f6d8e"/></g><g><path d="m367.21 152.372h-138.155c-4.267 0-7.726-3.459-7.726-7.726 0-4.268 3.459-7.726 7.726-7.726h138.155c4.267 0 7.726 3.459 7.726 7.726s-3.459 7.726-7.726 7.726z" fill="#3f6d8e"/></g><path d="m186.574 277.9h-33.297c-4.687 0-8.487 3.8-8.487 8.487v33.298c0 4.687 3.8 8.487 8.487 8.487h33.297c4.687 0 8.487-3.8 8.487-8.487v-33.298c0-4.687-3.8-8.487-8.487-8.487z" fill="#ffe07d"/><g><path d="m367.21 296.697h-138.155c-4.267 0-7.726-3.459-7.726-7.726s3.459-7.726 7.726-7.726h138.155c4.267 0 7.726 3.459 7.726 7.726s-3.459 7.726-7.726 7.726z" fill="#3f6d8e"/></g><g><path d="m367.21 324.826h-138.155c-4.267 0-7.726-3.459-7.726-7.726s3.459-7.726 7.726-7.726h138.155c4.267 0 7.726 3.459 7.726 7.726s-3.459 7.726-7.726 7.726z" fill="#3f6d8e"/></g><path d="m186.574 364.127h-33.297c-4.687 0-8.487 3.8-8.487 8.487v33.298c0 4.687 3.8 8.487 8.487 8.487h33.297c4.687 0 8.487-3.8 8.487-8.487v-33.298c0-4.687-3.8-8.487-8.487-8.487z" fill="#ffe07d"/><g fill="#ffc250"><path d="m169.926 233.457v-33.298c0-4.687 3.8-8.487 8.487-8.487h-25.135c-4.687 0-8.487 3.8-8.487 8.487v33.298c0 4.687 3.8 8.487 8.487 8.487h25.135c-4.688 0-8.487-3.8-8.487-8.487z"/><path d="m169.926 147.23v-33.298c0-4.687 3.8-8.487 8.487-8.487h-25.135c-4.687 0-8.487 3.8-8.487 8.487v33.298c0 4.687 3.8 8.487 8.487 8.487h25.135c-4.688-.001-8.487-3.8-8.487-8.487z"/><path d="m169.926 319.684v-33.298c0-4.687 3.8-8.487 8.487-8.487h-25.135c-4.687 0-8.487 3.8-8.487 8.487v33.298c0 4.687 3.8 8.487 8.487 8.487h25.135c-4.688 0-8.487-3.8-8.487-8.487z"/><path d="m169.926 405.911v-33.298c0-4.687 3.8-8.487 8.487-8.487h-25.135c-4.687 0-8.487 3.8-8.487 8.487v33.298c0 4.687 3.8 8.487 8.487 8.487h25.135c-4.688 0-8.487-3.799-8.487-8.487z"/></g><g><path d="m367.21 382.925h-138.155c-4.267 0-7.726-3.459-7.726-7.726s3.459-7.726 7.726-7.726h138.155c4.267 0 7.726 3.459 7.726 7.726s-3.459 7.726-7.726 7.726z" fill="#3f6d8e"/></g><g><path d="m367.21 411.053h-138.155c-4.267 0-7.726-3.459-7.726-7.726s3.459-7.726 7.726-7.726h138.155c4.267 0 7.726 3.459 7.726 7.726s-3.459 7.726-7.726 7.726z" fill="#3f6d8e"/></g><path d="m404.285 33.494h-255.467v37.061h256.326c0-21.409 0-34.925 0-36.203 0-.392-.466-.858-.859-.858z" fill="#b1e4f9"/><path d="m151.393 33.495h-43.677c-.394 0-.859.465-.859.858v36.203h44.536z" fill="#dd636e"/><g><path d="m262.652 484.509h-13.305c-4.267 0-7.726-3.459-7.726-7.726 0-4.268 3.459-7.726 7.726-7.726h13.305c4.267 0 7.726 3.459 7.726 7.726.001 4.267-3.458 7.726-7.726 7.726z" fill="#365e7d"/></g></g></svg>