<svg id="Layer_1_copy_3" height="512" viewBox="0 0 64 64" width="512" xmlns="http://www.w3.org/2000/svg" data-name="Layer 1 copy 3"><path d="m1 1h62v52h-62z" fill="#1d7d9f"/><path d="m1 6h62v42h-62z" fill="#23a8cc"/><path d="m26.807 53-3.129 10h15.644l-3.129-10z" fill="#6a951f"/><g opacity=".2"><path d="m1 15.831c4.806 3.859 26.944 20.069 62 22.522v-37.353h-62z" fill="#fff"/></g><g fill="#043c49"><path d="m10 46h-1a1 1 0 0 1 0-2h1a1 1 0 0 1 0 2z"/><path d="m14 46h-1a1 1 0 0 1 0-2h1a1 1 0 0 1 0 2z"/><path d="m6 46h-1a1 1 0 0 1 0-2h1a1 1 0 0 1 0 2z"/><path d="m55 10h-1a1 1 0 0 1 0-2h1a1 1 0 0 1 0 2z"/><path d="m59 10h-1a1 1 0 0 1 0-2h1a1 1 0 0 1 0 2z"/><path d="m51 10h-1a1 1 0 0 1 0-2h1a1 1 0 0 1 0 2z"/><path d="m64 54h-64v-54h64zm-62-2h60v-50h-60z"/><path d="m40.682 64h-18.364l3.753-12h10.858zm-15.643-2h12.922l-2.5-8h-7.919z"/><path d="m63 49h-62a1 1 0 0 1 0-2h62a1 1 0 0 1 0 2z"/><path d="m63 7h-62a1 1 0 0 1 0-2h62a1 1 0 0 1 0 2z"/><path d="m58 33h-52a1 1 0 0 1 0-2h52a1 1 0 0 1 0 2z"/><path d="m6 39a1 1 0 0 1 -.516-1.857l5-3a1 1 0 0 1 1.222.15l1.323 1.323 11.295-10.353a1 1 0 0 1 1.383.03l1.255 1.255 8.295-9.217a1 1 0 0 1 .717-.331 1.029 1.029 0 0 1 .733.293l2.339 2.339 7.3-6.385a1 1 0 0 1 1.522.249l6.489 11.126 4.132-2.479a1 1 0 1 1 1.029 1.715l-5 3a1 1 0 0 1 -1.379-.354l-6.392-10.953-7.089 6.2a1 1 0 0 1 -1.365-.046l-2.255-2.255-8.295 9.217a1 1 0 0 1 -.717.331 1.029 1.029 0 0 1 -.733-.293l-1.323-1.321-11.294 10.353a1 1 0 0 1 -1.383-.03l-1.448-1.448-4.33 2.6a1 1 0 0 1 -.515.141z"/><path d="m59 41a1 1 0 0 1 -.858-.485l-2.523-4.206-3.172 1.586a1 1 0 0 1 -1.222-.262l-8.3-10.145-3.219 3.219a1 1 0 0 1 -1.476-.066l-9.3-11.159-3.226 3.226a1 1 0 0 1 -1.262.125l-2.318-1.545-2.42 2.42a1 1 0 0 1 -1.332.074l-4.3-3.441-7.365 7.366a1 1 0 0 1 -1.414-1.414l8-8a1 1 0 0 1 1.332-.074l4.3 3.441 2.367-2.367a1 1 0 0 1 1.262-.125l2.318 1.545 3.42-3.42a.982.982 0 0 1 .753-.293 1 1 0 0 1 .724.358l9.3 11.159 3.226-3.226a1 1 0 0 1 1.481.074l8.493 10.381 3.285-1.643a1 1 0 0 1 1.3.38l3 5a1 1 0 0 1 -.854 1.517z"/></g></svg>