<svg id="Capa_1" enable-background="new 0 0 512 512" height="512" viewBox="0 0 512 512" width="512" xmlns="http://www.w3.org/2000/svg"><g><g><path clip-rule="evenodd" d="m255.986 11c-37.643 0-68.484 30.815-68.484 68.489v17.944c37.587-54.429 67.718-.198 136.967 0v-17.944c.001-37.674-30.811-68.489-68.483-68.489z" fill="#ffcd69" fill-rule="evenodd"/></g><g><path clip-rule="evenodd" d="m324.47 97.434c-69.249-.198-99.381-54.429-136.967 0v24.351c0 15.535 10.686 30.531 24.519 41.7 14.06 11.424 31.407 18.852 43.965 18.852 12.586 0 29.905-7.427 43.993-18.852 13.804-11.169 24.491-26.165 24.491-41.7v-24.351z" fill="#ffdcd5" fill-rule="evenodd"/></g><g><path clip-rule="evenodd" d="m212.021 163.485-24.519 25.06 44.843 41.36 23.64-47.568c-12.556 0-29.904-7.427-43.964-18.852z" fill="#ebddd9" fill-rule="evenodd"/></g><g><path clip-rule="evenodd" d="m232.345 229.905-44.843-41.36c-39.486 18.285-45.665 43.515-45.665 105.2h228.298c0-61.686-6.179-86.916-45.665-105.2l-44.843 41.36-23.641-47.568z" fill="#ff7b79" fill-rule="evenodd"/></g><g><path clip-rule="evenodd" d="m299.979 163.485c-14.088 11.424-31.407 18.852-43.993 18.852l23.641 47.568 44.843-41.36z" fill="#ebddd9" fill-rule="evenodd"/></g><g><path clip-rule="evenodd" d="m141.837 293.746h-100.345-14.995c-6.803 0-12.699 4.167-15.193 10.092v30.049c2.494 5.925 8.39 10.092 15.193 10.092h20.013 418.98 20.012c9.071 0 16.497-7.399 16.497-16.499v-17.236c0-9.071-7.427-16.499-16.497-16.499h-15.023-100.344-228.298z" fill="#ffcd69" fill-rule="evenodd"/></g><g><path clip-rule="evenodd" d="m465.49 343.979h-418.98l38.239 149.679c1.219 4.819 2.608 7.342 7.03 7.342h328.444c4.422 0 5.783-2.523 7.03-7.342zm-318.239 96.016v-35.01c0-7.002 5.726-12.728 12.756-12.728h191.987c7.001 0 12.756 5.726 12.756 12.728v35.01c0 7.03-5.754 12.757-12.756 12.757h-191.987c-7.03-.001-12.756-5.727-12.756-12.757z" fill="#ffe6b4" fill-rule="evenodd"/></g><g><path clip-rule="evenodd" d="m351.993 392.256h-191.986c-7.03 0-12.756 5.726-12.756 12.728v35.01c0 7.03 5.726 12.757 12.756 12.757h191.987c7.001 0 12.756-5.726 12.756-12.757v-35.01c-.001-7.002-5.755-12.728-12.757-12.728z" fill="#ebddd9" fill-rule="evenodd"/></g><g><path clip-rule="evenodd" d="m76.698 164.393-9.326 11.113c-7.88 9.44-6.633 23.614 2.778 31.523 9.439 7.909 23.64 6.662 31.521-2.778l9.326-11.113c7.909-9.412 6.661-23.614-2.778-31.523-9.44-7.91-23.613-6.662-31.521 2.778z" fill="#ebddd9" fill-rule="evenodd"/></g><g><path clip-rule="evenodd" d="m403.753 161.614c-9.411 7.909-10.658 22.112-2.75 31.523l9.297 11.113c7.909 9.44 22.081 10.687 31.521 2.778 9.439-7.909 10.686-22.083 2.778-31.523l-9.326-11.113c-7.879-9.439-22.081-10.687-31.52-2.778z" fill="#ebddd9" fill-rule="evenodd"/></g><g><path d="m137.251 404.984v35.01c0 12.548 10.208 22.757 22.756 22.757h191.986c12.548 0 22.756-10.209 22.756-22.757v-35.01c0-12.532-10.208-22.729-22.756-22.729h-191.986c-12.548.001-22.756 10.197-22.756 22.729zm217.498 0v35.01c0 1.494-1.262 2.757-2.756 2.757h-191.986c-1.52 0-2.756-1.236-2.756-2.757v-35.01c0-1.479 1.262-2.729 2.756-2.729h191.986c1.494.001 2.756 1.251 2.756 2.729z"/><path d="m485.503 283.746h-5.023v-42.501c0-.021 0-.038 0-.059 0-.013 0-.027 0-.04-.003-.923-.051-1.423-.156-1.62-.291-1.677-1.005-3.303-2.177-4.702l-23.258-27.769c7.229-11.568 6.6-26.963-2.628-37.979l-9.31-11.092c-5.519-6.611-13.31-10.676-21.939-11.445-8.65-.771-17.057 1.861-23.681 7.41-.003.003-.007.006-.011.01-13.671 11.489-15.452 31.95-3.985 45.596l9.302 11.117c5.54 6.613 13.345 10.675 21.975 11.435.975.086 1.945.129 2.911.129 4.172 0 8.244-.798 12.042-2.329l20.916 24.973v38.867h-80.417c-.8-56.163-9.251-84.063-49.666-103.443l-16.048-16.421c11.823-11.932 20.121-26.623 20.121-42.097v-24.352-17.945c-.001-43.279-35.209-78.489-78.486-78.489s-78.483 35.21-78.483 78.489v17.944 24.352c0 15.479 8.303 30.173 20.132 42.107l-16.056 16.409c-40.418 19.381-48.869 47.281-49.669 103.445h-80.417v-38.867l20.916-24.973c3.799 1.531 7.873 2.329 12.047 2.329.979 0 1.963-.044 2.95-.132 8.63-.769 16.422-4.833 21.925-11.426l9.32-11.106c5.543-6.596 8.18-14.983 7.425-23.617-.756-8.646-4.817-16.46-11.435-22.005-6.613-5.54-15.008-8.172-23.635-7.413-8.63.76-16.434 4.821-21.969 11.428l-9.343 11.133c-9.183 11.002-9.806 26.381-2.601 37.947l-23.268 27.781c-1.412 1.686-2.163 3.702-2.301 5.74-.015.154-.025.326-.029.518-.001.04-.003.08-.003.12 0 .015-.001.027-.001.043v42.501h-4.995c-14.608-.001-26.495 11.886-26.495 26.497v17.236c0 14.611 11.887 26.498 26.497 26.498h12.246l36.31 142.132c.931 3.683 3.766 14.89 16.725 14.89h328.443c12.871 0 15.762-11.167 16.719-14.866l36.316-142.155h12.247c14.61 0 26.497-11.887 26.497-26.498v-17.236c0-14.612-11.887-26.499-26.497-26.499zm-50.105-84.383c-2.519 2.111-5.721 3.11-9.033 2.82-3.307-.291-6.29-1.838-8.395-4.351l-9.312-11.129c-4.385-5.218-3.701-13.037 1.524-17.432 2.521-2.109 5.736-3.112 9.052-2.813 3.301.294 6.271 1.836 8.378 4.361l9.32 11.105c4.385 5.235 3.697 13.057-1.534 17.439zm-360.366-17.429 9.332-11.119c2.108-2.518 5.091-4.064 8.397-4.355.376-.033.75-.05 1.122-.05 2.905 0 5.68 1 7.912 2.87 2.52 2.11 4.066 5.1 4.356 8.417.289 3.307-.709 6.506-2.816 9.013l-9.342 11.133c-2.091 2.505-5.062 4.047-8.363 4.341-3.32.3-6.535-.706-9.047-2.81-5.219-4.389-5.908-12.221-1.551-17.44zm180.953-160.934c32.248 0 58.484 26.238 58.484 58.489v7.504c-20.012-1.705-36.509-8.044-51.305-13.729-13.278-5.103-26.217-10.075-39.011-10.075-8.761 0-17.455 2.333-26.142 8.553 3.803-28.603 28.352-50.742 57.974-50.742zm-58.483 100.785v-21.16c17.813-24.322 30.887-19.299 58.488-8.692 15.724 6.042 34.834 13.378 58.479 15.115v14.738c0 24.567-38.031 50.552-58.484 50.552-20.452-.001-58.483-25.985-58.483-50.553zm112.621 66.388-27.476 25.342-11.669-23.478c9.116-2.578 18.858-7.217 27.906-13.363zm-69.131 1.863-11.668 23.478-27.472-25.338 11.247-11.495c9.045 6.143 18.782 10.779 27.893 13.355zm-55.219 10.519 39.792 36.701c1.863 1.719 4.29 2.649 6.78 2.649.603 0 1.21-.055 1.813-.166 3.096-.57 5.742-2.565 7.143-5.384l14.685-29.549 14.686 29.549c1.4 2.819 4.047 4.813 7.143 5.384 3.099.571 6.278-.351 8.593-2.483l39.792-36.701c25.799 13.71 33.097 31.824 33.865 83.191h-208.156c.768-51.367 8.066-69.481 33.864-83.191zm306.227 126.925c0 3.583-2.914 6.498-6.497 6.498h-184.646c-5.522 0-10 4.478-10 10s4.478 10 10 10h151.757l-35.004 137.022-323.22-.001-35.005-137.02h151.644c5.522 0 10-4.478 10-10s-4.478-10-10-10h-184.532c-3.521 0-6.497-2.976-6.497-6.498v-17.236c0-3.522 2.976-6.498 6.497-6.498h459.006c3.521 0 6.497 2.976 6.497 6.498z"/><path d="m255.957 353.979h.028c5.522 0 9.986-4.478 9.986-10s-4.492-10-10.015-10-10 4.478-10 10 4.479 10 10.001 10z"/></g></g></svg>