<svg height="512" viewBox="0 0 512 512" width="512" xmlns="http://www.w3.org/2000/svg"><g id="Virus-2" data-name="Virus"><g id="Filled"><path d="m458.261 368.052c-.188-.009-.376-.016-.564-.023a70.465 70.465 0 0 1 -47.497-20.452l-25.975-25.977a143.173 143.173 0 0 0 15.55-57.6 141.178 141.178 0 0 1 58.9 13.1 32 32 0 1 0 -.451-57.985c-18.613 8.901-39.197 12.885-59.824 12.885h-.4a143.366 143.366 0 0 0 -29.853-66.322l29.326-29.325a56.969 56.969 0 0 1 36.978-16.427c.15-.009.3-.018.45-.029a40 40 0 1 0 -42.846-42.007c-.008.145-.015.29-.021.434a48.086 48.086 0 0 1 -13.911 32.121l-32.692 32.693a143.343 143.343 0 0 0 -65.431-29.138v-7.931c0-18.08 4.7-35.72 12.711-51.93a32 32 0 1 0 -57.6-.362c8.108 16.947 12.889 35.289 12.889 54.074v4.374a143.394 143.394 0 0 0 -40.863 8.284l-18.723-18.722a70.433 70.433 0 0 1 -20.443-47.478c-.007-.188-.014-.376-.023-.565a48 48 0 1 0 -50.212 50.2q.292.014.583.023a70.4 70.4 0 0 1 47.467 20.443l11.2 11.2a144.041 144.041 0 0 0 -62.986 96.39h-7.93c-18.08 0-35.721-4.7-51.931-12.711a32 32 0 1 0 -.362 57.6c16.947-8.108 35.289-12.889 54.074-12.889h4.374a143.272 143.272 0 0 0 28.375 78.146l-34.416 34.417a56.846 56.846 0 0 1 -32.071 15.869c-.133.019-.265.039-.4.06a40 40 0 1 0 46.23 41.654c.008-.165.016-.33.023-.494a67.679 67.679 0 0 1 19.621-45.239l22.913-22.908a144.226 144.226 0 0 0 126.48 30.695l.226 1.084c4.7 22.553 4.012 45.745-.567 68.322a32.019 32.019 0 0 0 29.091 38.316 32.005 32.005 0 0 0 29.295-49.063c-13.485-21.2-22.5-44.94-27.625-69.541a144.535 144.535 0 0 0 46.734-36.557l21.445 21.445a70.461 70.461 0 0 1 20.45 47.49c.007.188.014.376.023.564a48 48 0 1 0 50.209-50.208z" fill="#b0ed98"/><path d="m395.893 137.93 1.578-1.577a56.969 56.969 0 0 1 36.978-16.427c.15-.009.3-.018.45-.029a40 40 0 1 0 -36.372-61.706 305.612 305.612 0 0 1 -2.634 79.739z" fill="#96ea8c"/><path d="m78.933 391.516q-2.384.553-4.821.916c-.133.019-.265.039-.4.06a40 40 0 1 0 46.23 41.654c.008-.165.016-.33.023-.494a67.706 67.706 0 0 1 19.12-44.714 306.571 306.571 0 0 1 -60.152 2.578z" fill="#96ea8c"/><g fill="#def4d7"><circle cx="304" cy="216" r="16"/><circle cx="39" cy="247" r="15"/><circle cx="148" cy="252" r="20"/><circle cx="260" cy="36" r="12"/><circle cx="148" cy="300" r="12"/></g><path d="m503.936 413.5a48.176 48.176 0 0 0 -45.675-45.445c-.188-.009-.376-.016-.564-.023a70.465 70.465 0 0 1 -47.497-20.455l-25.975-25.977a143.173 143.173 0 0 0 15.55-57.6 141.178 141.178 0 0 1 58.9 13.1 32 32 0 1 0 -.451-57.985c-18.613 8.901-39.197 12.885-59.824 12.885h-.4a142.991 142.991 0 0 0 -14.922-43.766 304.718 304.718 0 0 1 -200.95 191.384 144.347 144.347 0 0 0 106.852 16.582l.226 1.084c4.7 22.553 4.012 45.745-.567 68.322a32.019 32.019 0 0 0 29.091 38.316 32.005 32.005 0 0 0 29.295-49.063c-13.484-21.2-22.5-44.94-27.625-69.541a144.535 144.535 0 0 0 46.734-36.557l21.445 21.445a70.461 70.461 0 0 1 20.45 47.49c.007.188.014.376.023.564a48 48 0 1 0 95.884-4.763z" fill="#96ea8c"/></g><g id="Outline"><path d="m458.634 360.061a62.7 62.7 0 0 1 -42.773-18.141c-7.479-7.479-18.8 3.824-11.314 11.313 23.132 23.133 52.915 22.714 53.348 22.811 33.971 1.561 51.214 43.417 26.389 68.241-24.721 24.723-66.671 7.759-68.24-26.377a77.9 77.9 0 0 0 -22.809-53.359c-20.85-19.746-21.4-24.039-27.441-23.781-8.78.372-13.021 19.244-49.921 37.369a8 8 0 0 0 -4.305 8.812c5.564 26.7 15.222 51 28.706 72.2a23.979 23.979 0 0 1 -3.9 30.4c-16.921 15.8-44.533.524-39.892-22.353 10.547-52-1.939-79.587-8.847-101.6-3.173-10.088-18.441-5.307-15.264 4.8 2.133 11.612 19.565 38.713 8.431 93.616a40.05 40.05 0 0 0 39.243 47.988c31.673 0 50.452-35.138 33.73-61.435a197.834 197.834 0 0 1 -25.231-60.965 151.1 151.1 0 0 0 37.919-29.2l15.459 15.459c18.664 18.664 18.02 42.231 18.138 42.764 2.187 47.583 60.784 71.725 95.537 36.972 34.353-34.348 11.144-93.323-36.963-95.534z"/><path d="m256 392a136.007 136.007 0 0 1 -88.307-32.577 8 8 0 0 0 -10.855.425l-22.907 22.908c-22 22-21.9 50.631-21.976 50.973-1.424 27.237-35.075 40.695-54.748 20.731-18.451-18.723-7.518-50.108 17.728-54.062 1.727-.535 20.407-1.681 36.9-18.179 7.479-7.478-3.823-18.8-11.313-11.313-12.206 12.2-27.631 13.554-28.05 13.682-37.689 5.9-54.507 52.852-26.665 81.1 29.081 29.512 79.94 10.634 82.122-31.119a58.491 58.491 0 0 1 17.311-40.5l17.806-17.805a151.79 151.79 0 0 0 27.434 16.88l-13.639 27.278c-4.72 9.439 9.6 16.582 14.31 7.156l14.148-28.3a152.039 152.039 0 0 0 32.957 7.67l-14.07 63.313c-2.295 10.327 13.322 13.809 15.62 3.47l14.611-65.751c6.472.066 9.579-3.558 9.579-7.984a8 8 0 0 0 -7.996-7.996z"/><path d="m57.231 284.1c15.789-7.553 31.79-11.6 47.612-12.061a151.146 151.146 0 0 0 10.351 41.263l-38.165 15.27c-9.727 3.891-3.984 18.826 5.942 14.856l39.048-15.619a152.247 152.247 0 0 0 12.173 19.128c6.334 8.471 19.156-1.1 12.814-9.582a135.185 135.185 0 0 1 -26.793-73.792c-.511-9.324-11.645-7.366-12.362-7.563-19.208 0-38.562 4.6-57.524 13.67a23.961 23.961 0 0 1 -27.877-5.3c-17.965-19.249 4.35-49.665 28.15-37.908 18.184 8.983 36.848 13.538 55.472 13.538 2.8-.521 14.265 2.588 15.82-6.676a136.384 136.384 0 0 1 59.486-91.031 8 8 0 0 0 3.562-5.871c.626-6.118-4.676-7.862-13.5-17.665-23.18-23.18-52.907-22.7-53.339-22.8-33.97-1.564-51.21-43.423-26.381-68.246 24.707-24.7 66.67-7.778 68.237 26.406a77.842 77.842 0 0 0 22.8 53.326c7.479 7.479 18.8-3.824 11.314-11.313-18.659-18.659-18.013-42.219-18.131-42.752-2.176-47.456-60.708-71.8-95.533-36.982-34.436 34.428-11.067 93.334 36.948 95.542l.691.028c29.794 1.02 44.248 20.914 46.562 22.583a152.2 152.2 0 0 0 -18.8 16.807l-29.008-21.756c-8.459-6.346-18.075 6.444-9.6 12.8l28.2 21.148a152.871 152.871 0 0 0 -16.3 26.452l-58.86-36.784c-8.966-5.6-17.464 7.953-8.48 13.568l61.066 38.167a150.394 150.394 0 0 0 -5.437 19.049c-.786-.093-23.2 1.209-49.7-11.883-39.99-19.755-76.644 31.334-46.931 63.171a40.052 40.052 0 0 0 46.473 8.812z"/><path d="m209.851 128.035a135.474 135.474 0 0 1 38.587-7.823c9.323-.509 7.365-11.644 7.562-12.361 0-38.919-16-54.689-16-67.851a23.767 23.767 0 0 1 7.629-17.55c19.178-17.9 49.725 4.228 37.909 28.148-16.6 33.612-13.07 58.76-13.538 63.4 0 15.062 25.875 1.615 68.458 35.4a8 8 0 1 0 9.945-12.534 151.857 151.857 0 0 0 -28.883-18.024l13.635-27.269c4.73-9.459-9.574-16.629-14.31-7.156l-14.145 28.292a151.023 151.023 0 0 0 -18.7-5.318c.093-.786-1.209-23.2 11.883-49.7 19.753-39.986-31.33-76.648-63.171-46.931a40.051 40.051 0 0 0 -8.812 46.472c7.553 15.789 11.6 31.792 12.061 47.614a151.231 151.231 0 0 0 -35.535 8.14 8 8 0 0 0 5.429 15.051z"/><path d="m398 240c3.186-.328 32.213 1.38 63.676-13.67a23.967 23.967 0 0 1 27.876 5.3c17.62 18.878-3.6 49.194-27.539 38.2a148.226 148.226 0 0 0 -62.238-13.83c-14.765 0-1.19 20.046-22.67 61.948-4.807 9.379 9.433 16.674 14.239 7.3a151.525 151.525 0 0 0 8.707-20.611l36.978 14.792c9.942 3.975 15.662-10.968 5.942-14.856l-38.589-15.435a151.473 151.473 0 0 0 2.76-16.928 133.154 133.154 0 0 1 48.192 12.159c39.87 18.307 75.322-32.147 45.913-63.656a40.143 40.143 0 0 0 -29.247-12.713c-19.117 0-26.392 14.217-67.416 15.876a151.181 151.181 0 0 0 -5.281-18.583l44.275-22.138c9.461-4.73 2.32-19.045-7.156-14.31l-43.265 21.633a152.047 152.047 0 0 0 -14.394-24.1c18.7-16.027 28.232-36.787 56.154-38.462l.548-.036c41.087-2.916 59.379-52.909 30.48-81.814-29.671-29.678-79.774-9.288-81.88 31.424a40.433 40.433 0 0 1 -11.6 27.3 8 8 0 1 0 11.315 11.31c16.294-16.293 16.205-37.54 16.264-37.8a32 32 0 1 1 34.285 33.614l-.359.023a64.969 64.969 0 0 0 -42.156 18.763l-29.326 29.325a8 8 0 0 0 -.571 10.679c34.183 42.382 21.256 69.296 36.083 69.296z"/><path d="m304 256a40 40 0 0 0 0-80c-10.576 0-10.592 16 0 16a24 24 0 1 1 -24 24 8 8 0 0 0 -8-8c-18.236 0-5.193 48 32 48z"/><path d="m200 288a8 8 0 0 0 8 8 16 16 0 1 1 -16 16 8 8 0 0 0 -8-8c-16.807 0-6.5 40 24 40a32.036 32.036 0 0 0 32-32c0-30.515-40-40.8-40-24z"/><path d="m184 204c0-10.576-16-10.592-16 0a28 28 0 0 0 56 0c0-27.035-36-36.229-36-20a8 8 0 0 0 8 8 12.013 12.013 0 0 1 12 12c0 15.882-24 15.863-24 0z"/><path d="m324 328a28.032 28.032 0 0 0 28-28c0-27.035-36-36.229-36-20a8 8 0 0 0 8 8c15.882 0 15.863 24 0 24a12.013 12.013 0 0 1 -12-12c0-10.576-16-10.592-16 0a28.032 28.032 0 0 0 28 28z"/><path d="m40 144c0-10.577-16-10.592-16 0 0 10.577 16 10.592 16 0z"/><path d="m456 160c0 10.577 16 10.592 16 0 0-10.577-16-10.592-16 0z"/><path d="m472 400c-10.577 0-10.592 16 0 16s10.592-16 0-16z"/><path d="m448 440c10.577 0 10.592-16 0-16s-10.592 16 0 16z"/><path d="m440 392c-10.577 0-10.592 16 0 16s10.592-16 0-16z"/><path d="m432 72c-10.577 0-10.592 16 0 16s10.592-16 0-16z"/><path d="m256 304c0 10.577 16 10.592 16 0s-16-10.592-16 0z"/><circle cx="280" cy="152" r="8"/><path d="m104 40c0 10.577 16 10.592 16 0s-16-10.592-16 0z"/><path d="m136 72c0-10.577-16-10.592-16 0 0 10.577 16 10.592 16 0z"/><path d="m208 256c0 10.577 16 10.592 16 0s-16-10.592-16 0z"/><path d="m224 360c0 10.577 16 10.592 16 0s-16-10.592-16 0z"/><circle cx="240" cy="168" r="8"/><path d="m336 72c10.577 0 10.592-16 0-16s-10.592 16 0 16z"/><path d="m216 496c0 10.577 16 10.592 16 0s-16-10.592-16 0z"/><path d="m88 432c10.577 0 10.592-16 0-16-10.577 0-10.592 16 0 16z"/><path d="m48 360c10.577 0 10.592-16 0-16-10.577 0-10.592 16 0 16z"/></g></g></svg>