<svg id="disinfection" enable-background="new 0 0 300 300" height="512" viewBox="0 0 300 300" width="512" xmlns="http://www.w3.org/2000/svg"><g><circle cx="127.698" cy="122" fill="#edebdc" r="92"/><path d="m165.698 206c-7.719 0-14-6.281-14-14s6.281-14 14-14 14 6.281 14 14-6.282 14-14 14zm0-20c-3.309 0-6 2.691-6 6s2.691 6 6 6 6-2.691 6-6-2.692-6-6-6z" fill="#4c241d"/><path d="m264.302 212.391c0 2.362-1.914 4.277-4.276 4.277s-4.276-1.915-4.276-4.277 1.914-4.276 4.276-4.276 4.276 1.915 4.276 4.276z" fill="#4c241d"/><path d="m220.302 232.391c0 2.362-1.914 4.277-4.276 4.277s-4.276-1.915-4.276-4.277 1.914-4.276 4.276-4.276 4.276 1.915 4.276 4.276z" fill="#4c241d"/><path d="m220.302 48.391c0 2.362-1.914 4.277-4.276 4.277s-4.276-1.915-4.276-4.277 1.914-4.276 4.276-4.276 4.276 1.915 4.276 4.276z" fill="#4c241d"/><path d="m172.302 72.391c0 2.362-1.914 4.277-4.276 4.277s-4.276-1.915-4.276-4.277 1.914-4.276 4.276-4.276 4.276 1.915 4.276 4.276z" fill="#4c241d"/><g><path d="m83.698 74h36v40h-36z" fill="#ffce56"/><path d="m119.698 118h-36c-2.211 0-4-1.791-4-4v-40c0-2.209 1.789-4 4-4h36c2.211 0 4 1.791 4 4v40c0 2.209-1.789 4-4 4zm-32-8h28v-32h-28z" fill="#4c241d"/></g><g><path d="m111.932 114h-23.202c-4.988 0-9.032 4.044-9.032 9.032v54.968h48v-48.234c0-8.708-7.059-15.766-15.766-15.766z" fill="#ffce56"/><path d="m127.698 182h-48c-2.211 0-4-1.791-4-4v-54.969c0-7.186 5.848-13.031 13.031-13.031h23.203c10.898 0 19.766 8.867 19.766 19.766v48.234c0 2.209-1.789 4-4 4zm-44-8h40v-44.234c0-6.488-5.277-11.766-11.766-11.766h-23.203c-2.773 0-5.031 2.258-5.031 5.031z" fill="#4c241d"/></g><g><path d="m107.588 203.607 18.832-23.981" fill="#ffce56"/><path d="m107.584 207.607c-.863 0-1.734-.279-2.465-.854-1.738-1.365-2.043-3.879-.676-5.617l18.832-23.98c1.363-1.734 3.879-2.041 5.613-.676 1.738 1.365 2.043 3.879.676 5.617l-18.832 23.98c-.788 1.005-1.96 1.53-3.148 1.53z" fill="#4c241d"/></g><g><path d="m95.698 81.665c0 6.812 5.154 12.335 11.513 12.335h12.487v-20h-24z" fill="#c1dbdc"/><path d="m119.698 98h-12.488c-8.555 0-15.512-7.328-15.512-16.336v-7.664c0-2.209 1.789-4 4-4h24c2.211 0 4 1.791 4 4v20c0 2.209-1.789 4-4 4zm-20-20v3.664c0 4.596 3.371 8.336 7.512 8.336h8.488v-12z" fill="#4c241d"/></g><g><path d="m79.698 198-24-12v-68h24z" fill="#fff"/><path d="m79.698 202c-.613 0-1.223-.141-1.789-.422l-24-12c-1.355-.678-2.211-2.062-2.211-3.578v-68c0-2.209 1.789-4 4-4h24c2.211 0 4 1.791 4 4v80c0 1.387-.719 2.674-1.898 3.402-.641.397-1.372.598-2.102.598zm-20-18.473 16 8v-69.527h-16z" fill="#4c241d"/></g><g><path d="m103.698 58h-4c-8.837 0-16 7.163-16 16h36c0-8.837-7.164-16-16-16z" fill="#ffce56"/><path d="m119.698 78h-36c-2.211 0-4-1.791-4-4 0-11.027 8.973-20 20-20h4c11.027 0 20 8.973 20 20 0 2.209-1.789 4-4 4zm-31.317-8h26.633c-1.652-4.656-6.102-8-11.316-8h-4c-5.215 0-9.664 3.344-11.317 8z" fill="#4c241d"/></g><g><path d="m90.334 266 17.254-62.394 8.557 62.394h11.553v-88h-48l-3.925 88z" fill="#ffce56"/><path d="m127.698 270h-11.551c-2 0-3.691-1.477-3.961-3.457l-5.922-43.146-12.074 43.67c-.48 1.732-2.059 2.934-3.855 2.934h-14.563c-1.09 0-2.137-.445-2.891-1.234s-1.152-1.854-1.105-2.943l3.926-88c.094-2.139 1.855-3.822 3.996-3.822h48c2.211 0 4 1.791 4 4v88c0 2.207-1.789 3.998-4 3.998zm-8.063-8h4.062v-80h-40.175l-3.566 80h7.336l16.441-59.461c.504-1.83 2.246-3.109 4.121-2.924 1.895.125 3.438 1.566 3.695 3.447z" fill="#4c241d"/></g><g><path d="m147.698 150h-36c-3.27 0-6.215-1.992-7.43-5.029l-8-20c-1.641-4.102.355-8.758 4.457-10.398 4.114-1.643 8.758.355 10.402 4.457l5.989 14.97h30.582c4.418 0 8 3.582 8 8s-3.582 8-8 8z" fill="#ffce56"/><path d="m147.698 154h-36c-4.938 0-9.312-2.961-11.145-7.543l-8-20c-2.457-6.145.543-13.141 6.688-15.6 6.125-2.447 13.137.545 15.598 6.684l4.984 12.459h27.875c6.617 0 12 5.383 12 12s-5.383 12-12 12zm-44.008-35.998c-.496 0-.996.092-1.48.285-2.047.818-3.047 3.15-2.227 5.197l8 20c.609 1.529 2.07 2.516 3.715 2.516h36c2.207 0 4-1.795 4-4s-1.793-4-4-4h-30.582c-1.637 0-3.105-.996-3.715-2.514l-5.988-14.971c-.626-1.562-2.133-2.513-3.723-2.513z" fill="#4c241d"/></g><g><path d="m119.698 90h12v16h-12z" fill="#fff"/><path d="m131.698 110h-12c-2.211 0-4-1.791-4-4v-16c0-2.209 1.789-4 4-4h12c2.211 0 4 1.791 4 4v16c0 2.209-1.789 4-4 4zm-8-8h4v-8h-4z" fill="#4c241d"/></g><g><path d="m127.698 122h56v12h-56z" fill="#fff"/><path d="m183.698 138h-56c-2.211 0-4-1.791-4-4v-12c0-2.209 1.789-4 4-4h56c2.211 0 4 1.791 4 4v12c0 2.209-1.789 4-4 4zm-52-8h48v-4h-48z" fill="#4c241d"/></g><g fill="#4c241d"><path d="m183.698 146c-2.211 0-4-1.791-4-4v-28c0-2.209 1.789-4 4-4s4 1.791 4 4v28c0 2.209-1.789 4-4 4z"/><g><path d="m195.702 114c-1.199 0-2.387-.537-3.176-1.561-1.344-1.752-1.02-4.264.734-5.609l6.34-4.877c1.75-1.352 4.262-1.021 5.609.73 1.344 1.752 1.02 4.264-.734 5.609l-6.34 4.877c-.726.561-1.582.831-2.433.831z"/><path d="m215.147 99.041c-1.199 0-2.387-.537-3.176-1.561-1.344-1.752-1.02-4.264.734-5.609l13.105-10.082c1.75-1.348 4.262-1.02 5.609.73 1.344 1.752 1.02 4.264-.734 5.609l-13.105 10.083c-.726.56-1.582.83-2.433.83z"/><path d="m241.362 78.877c-1.199 0-2.387-.537-3.176-1.561-1.344-1.752-1.02-4.264.734-5.609l6.34-4.877c1.746-1.352 4.262-1.021 5.609.73 1.344 1.752 1.02 4.264-.734 5.609l-6.34 4.877c-.726.561-1.582.831-2.433.831z"/></g><g><path d="m199.694 126.002c-1.738 0-3.34-1.146-3.844-2.902-.605-2.125.625-4.34 2.75-4.945l7.691-2.197c2.105-.604 4.336.619 4.945 2.746.605 2.125-.625 4.34-2.75 4.945l-7.691 2.197c-.367.105-.734.156-1.101.156z"/><path d="m220.924 119.936c-1.738 0-3.34-1.146-3.844-2.904-.605-2.123.625-4.338 2.75-4.943l13.539-3.867c2.105-.605 4.336.619 4.945 2.748.605 2.123-.625 4.338-2.75 4.943l-13.539 3.867c-.366.105-.734.156-1.101.156z"/><path d="m248.002 112.199c-1.738 0-3.34-1.146-3.844-2.902-.605-2.125.625-4.34 2.75-4.945l7.691-2.197c2.109-.598 4.336.619 4.945 2.746.605 2.125-.625 4.34-2.75 4.945l-7.691 2.197c-.366.105-.733.156-1.101.156z"/></g><g><path d="m202.034 154.877c-.852 0-1.707-.27-2.434-.83l-6.34-4.877c-1.754-1.346-2.078-3.857-.734-5.609 1.348-1.752 3.859-2.082 5.609-.73l6.34 4.877c1.754 1.346 2.078 3.857.734 5.609-.789 1.023-1.976 1.56-3.175 1.56z"/><path d="m228.245 175.041c-.852 0-1.707-.27-2.434-.83l-13.105-10.082c-1.754-1.346-2.078-3.857-.734-5.609 1.352-1.752 3.859-2.084 5.609-.73l13.105 10.082c1.754 1.346 2.078 3.857.734 5.609-.789 1.023-1.976 1.56-3.175 1.56z"/><path d="m247.694 190c-.852 0-1.707-.27-2.434-.83l-6.34-4.877c-1.754-1.346-2.078-3.857-.734-5.609 1.348-1.752 3.855-2.084 5.609-.73l6.34 4.877c1.754 1.346 2.078 3.857.734 5.609-.789 1.023-1.976 1.56-3.175 1.56z"/></g><g><path d="m207.393 140.199c-.367 0-.734-.051-1.102-.156l-7.691-2.197c-2.125-.605-3.355-2.82-2.75-4.945.609-2.127 2.844-3.348 4.945-2.746l7.691 2.197c2.125.605 3.355 2.82 2.75 4.945-.503 1.756-2.105 2.902-3.843 2.902z"/><path d="m234.471 147.936c-.367 0-.734-.051-1.102-.156l-13.539-3.867c-2.125-.605-3.355-2.82-2.75-4.943.609-2.129 2.836-3.357 4.945-2.748l13.539 3.867c2.125.605 3.355 2.82 2.75 4.943-.503 1.757-2.105 2.904-3.843 2.904z"/><path d="m255.702 154.002c-.367 0-.734-.051-1.102-.156l-7.691-2.197c-2.125-.605-3.355-2.82-2.75-4.945.609-2.129 2.84-3.354 4.945-2.746l7.691 2.197c2.125.605 3.355 2.82 2.75 4.945-.504 1.755-2.105 2.902-3.843 2.902z"/></g><path d="m235.698 270h-176c-2.211 0-4-1.791-4-4s1.789-4 4-4h176c2.211 0 4 1.791 4 4s-1.789 4-4 4z"/></g></g></svg>