<svg height="512" viewBox="0 0 58 58" width="512" xmlns="http://www.w3.org/2000/svg"><g id="Page-1" fill="none" fill-rule="evenodd"><g id="042---Send-Email" fill-rule="nonzero"><path id="Shape" d="m55 .27-54.51 31.79c-.31340067.1885394-.50001146.5321143-.48755023.8976438.01246123.3655294.22203714.695598.54755023.8623562l15.45 7.18 4 17 12-9 .06-.1 13.94 7.98c.2790351.1517117.6134849.1621026.9013997.0280053s.4951744-.3967913.5586003-.7080053l8.69-44.6.03-.14 1.77-9.08c.1480546-.76577582-.1637303-1.54760614-.7981166-2.00135363s-1.4750212-.49619028-2.1518834-.10864637z" fill="#9fc9d3"/><path id="Shape" d="m51.66 10.58c-.0041467.0477315-.0142243.0947604-.03.14-.0288299.0994058-.0726684.1938271-.13.28l-24.5 35-7 12-4-17 34-31.3c.3126725-.27901459.7659716-.33393116 1.1362252-.13765213s.5792146.60227323.5237748 1.01765213z" fill="#84b5cb"/><path id="Shape" d="m57.95 2.38-1.77 9.08-.03.14-8.69 44.6c-.0634259.311214-.2706855.573908-.5586003.7080053s-.6223646.1237064-.9013997-.0280053l-13.94-7.98-5.06-2.9 24.5-35c.0573316-.0861729.1011701-.1805942.13-.28.0157757-.0452396.0258533-.0922685.03-.14.0554398-.4153789-.1535212-.8213731-.5237748-1.01765213s-.8235527-.14136246-1.1362252.13765213l-34 31.3-15.45-7.18c-.32551309-.1667582-.535089-.4968268-.54755023-.8623562-.01246123-.3655295.17414956-.7091044.48755023-.8976438l54.51-31.79c.6768622-.38754391 1.5174971-.34510112 2.1518834.10864637s.9461712 1.23557781.7981166 2.00135363z" fill="#9fc9d3"/><path id="Shape" d="m32.06 48.9-.06.1-12 9 7-12z" fill="#3b97d3"/></g></g></svg>