<svg id="fitness-home" enable-background="new 0 0 300 300" height="512" viewBox="0 0 300 300" width="512" xmlns="http://www.w3.org/2000/svg"><g><circle cx="180" cy="122" fill="#efefd2" r="86"/><g fill="#4c241d"><path d="m60.529 78c0 2.502-2.028 4.53-4.53 4.53s-4.53-2.028-4.53-4.53 2.028-4.53 4.53-4.53 4.53 2.028 4.53 4.53z"/><path d="m184.529 50c0 2.502-2.028 4.53-4.53 4.53s-4.53-2.028-4.53-4.53 2.028-4.53 4.53-4.53 4.53 2.028 4.53 4.53z"/><path d="m234.652 113.348c-1.023 0-2.047-.391-2.828-1.172-1.562-1.562-1.562-4.094 0-5.656l14.695-14.695c1.562-1.562 4.094-1.562 5.656 0s1.562 4.094 0 5.656l-14.695 14.695c-.781.781-1.804 1.172-2.828 1.172z"/><path d="m249.347 113.348c-1.023 0-2.047-.391-2.828-1.172l-14.695-14.696c-1.562-1.562-1.562-4.094 0-5.656s4.094-1.562 5.656 0l14.695 14.695c1.562 1.562 1.562 4.094 0 5.656-.781.782-1.804 1.173-2.828 1.173z"/></g><g><path d="m86 100h20v28h-20z" fill="#f53e28"/><path d="m106 132h-20c-2.211 0-4-1.791-4-4v-28c0-2.209 1.789-4 4-4h20c2.211 0 4 1.791 4 4v28c0 2.209-1.789 4-4 4zm-16-8h12v-20h-12z" fill="#4c241d"/></g><g><path d="m146 72-108 96h28v92h160v-92h28z" fill="#f4aeab"/><path d="m226 264h-160c-2.211 0-4-1.791-4-4v-88h-24c-1.66 0-3.148-1.025-3.738-2.578s-.16-3.309 1.082-4.412l108-96c1.516-1.348 3.797-1.348 5.312 0l108 96c1.242 1.104 1.672 2.859 1.082 4.412s-2.078 2.578-3.738 2.578h-24v88c0 2.209-1.789 4-4 4zm-156-8h152v-88c0-2.209 1.789-4 4-4h17.48l-97.48-86.648-97.481 86.648h17.481c2.211 0 4 1.791 4 4z" fill="#4c241d"/></g><g><path d="m110.567 244h-13.135c-1.896 0-3.432-1.537-3.432-3.432v-41.135c0-1.896 1.537-3.432 3.432-3.432h13.135c1.896 0 3.432 1.537 3.432 3.432v41.135c.001 1.895-1.536 3.432-3.432 3.432z" fill="#b5a19c"/><path d="m110.566 248h-13.133c-4.098 0-7.434-3.334-7.434-7.432v-41.137c0-4.098 3.336-7.432 7.434-7.432h13.133c4.098 0 7.434 3.334 7.434 7.432v41.137c0 4.098-3.336 7.432-7.434 7.432zm-12.566-8h12v-40h-12z" fill="#4c241d"/></g><g><path d="m194.567 244h-13.135c-1.896 0-3.432-1.537-3.432-3.432v-41.135c0-1.896 1.537-3.432 3.432-3.432h13.135c1.896 0 3.432 1.537 3.432 3.432v41.135c.001 1.895-1.536 3.432-3.432 3.432z" fill="#b5a19c"/><path d="m194.566 248h-13.133c-4.098 0-7.434-3.334-7.434-7.432v-41.137c0-4.098 3.336-7.432 7.434-7.432h13.133c4.098 0 7.434 3.334 7.434 7.432v41.137c0 4.098-3.336 7.432-7.434 7.432zm-12.566-8h12v-40h-12z" fill="#4c241d"/></g><g><circle cx="146" cy="144" fill="#fff" r="36"/><path d="m146 184c-22.055 0-40-17.943-40-40s17.945-40 40-40 40 17.943 40 40-17.946 40-40 40zm0-72c-17.645 0-32 14.355-32 32s14.355 32 32 32 32-14.355 32-32-14.356-32-32-32z" fill="#4c241d"/></g><path d="m134.004 156c-1.398 0-2.754-.732-3.488-2.035-1.086-1.924-.406-4.363 1.52-5.449l9.965-5.621v-14.895c0-2.209 1.789-4 4-4s4 1.791 4 4v17.23c0 1.443-.777 2.775-2.035 3.484l-12 6.77c-.623.35-1.298.516-1.962.516z" fill="#4c241d"/><g><path d="m114 212h64v16h-64z" fill="#b5a19c"/><path d="m178 232h-64c-2.211 0-4-1.791-4-4v-16c0-2.209 1.789-4 4-4h64c2.211 0 4 1.791 4 4v16c0 2.209-1.789 4-4 4zm-60-8h56v-8h-56z" fill="#4c241d"/></g><g><path d="m82 212h12v16h-12z" fill="#b5a19c"/><path d="m94 232h-12c-2.211 0-4-1.791-4-4v-16c0-2.209 1.789-4 4-4h12c2.211 0 4 1.791 4 4v16c0 2.209-1.789 4-4 4zm-8-8h4v-8h-4z" fill="#4c241d"/></g><g><path d="m198 212h12v16h-12z" fill="#b5a19c"/><path d="m210 232h-12c-2.211 0-4-1.791-4-4v-16c0-2.209 1.789-4 4-4h12c2.211 0 4 1.791 4 4v16c0 2.209-1.789 4-4 4zm-8-8h4v-8h-4z" fill="#4c241d"/></g><path d="m236 68c-7.719 0-14-6.281-14-14s6.281-14 14-14 14 6.281 14 14-6.282 14-14 14zm0-20c-3.309 0-6 2.691-6 6s2.691 6 6 6 6-2.691 6-6-2.692-6-6-6z" fill="#4c241d"/></g></svg>