<svg id="Layer_3" enable-background="new 0 0 64 64" height="512" viewBox="0 0 64 64" width="512" xmlns="http://www.w3.org/2000/svg"><g><path d="m46 31h16v6h-16z" fill="#3b5892"/><path d="m46 37h14v25h-14z" fill="#ccc"/><path d="m50 41h6v8h-6z" fill="#4c6cb5" transform="matrix(-1 0 0 -1 106 90)"/><path d="m22 2h20v12h-20z" fill="#3b5892"/><path d="m22 2v9.8c.973.127 1.974.2 3 .2 8.346 0 15.191-4.394 15.927-10z" fill="#6279a8"/><path d="m16 18h32v6h-32z" fill="#3b5892"/><path d="m18 24h28v38h-28z" fill="#f2f2f2"/><path d="m2 31h16v6h-16z" fill="#3b5892"/><path d="m4 37h14v25h-14z" fill="#ccc"/><g fill="#4c6cb5"><path d="m23 48h18v14h-18z"/><path d="m22 28h8v6h-8z"/><path d="m34 28h8v6h-8z"/><path d="m34 38h8v6h-8z"/><path d="m22 38h8v6h-8z"/><path d="m8 41h6v8h-6z"/></g><g><path d="m62 30h-15v-5h1c.552 0 1-.447 1-1v-6c0-.553-.448-1-1-1h-8v-2h2c.552 0 1-.447 1-1v-12c0-.553-.448-1-1-1h-20c-.552 0-1 .447-1 1v12c0 .553.448 1 1 1h2v2h-8c-.552 0-1 .447-1 1v6c0 .553.448 1 1 1h1v5h-15c-.552 0-1 .447-1 1v6c0 .553.448 1 1 1h1v24c0 .553.448 1 1 1h56c.552 0 1-.447 1-1v-24h1c.552 0 1-.447 1-1v-6c0-.553-.448-1-1-1zm-39-27h18v10h-18zm3 12h12v2h-12zm-9 4h30v4h-30zm28 6v36h-3v-13c0-.553-.448-1-1-1h-18c-.552 0-1 .447-1 1v13h-3v-36zm-12 24h7v12h-7zm-2 12h-7v-12h7zm-28-29h14v4h-14zm14 6v17h-12v-17zm-12 19h12v4h-12zm42 4v-4h12v4zm12-6h-12v-17h12zm2-19h-14v-4h14z"/><path d="m33 5h-2v2h-2v2h2v2h2v-2h2v-2h-2z"/><path d="m22 35h8c.552 0 1-.447 1-1v-6c0-.553-.448-1-1-1h-8c-.552 0-1 .447-1 1v6c0 .553.448 1 1 1zm1-6h6v4h-6z"/><path d="m34 35h8c.552 0 1-.447 1-1v-6c0-.553-.448-1-1-1h-8c-.552 0-1 .447-1 1v6c0 .553.448 1 1 1zm1-6h6v4h-6z"/><path d="m34 45h8c.552 0 1-.447 1-1v-6c0-.553-.448-1-1-1h-8c-.552 0-1 .447-1 1v6c0 .553.448 1 1 1zm1-6h6v4h-6z"/><path d="m22 45h8c.552 0 1-.447 1-1v-6c0-.553-.448-1-1-1h-8c-.552 0-1 .447-1 1v6c0 .553.448 1 1 1zm1-6h6v4h-6z"/><path d="m50 50h6c.552 0 1-.447 1-1v-8c0-.553-.448-1-1-1h-6c-.552 0-1 .447-1 1v8c0 .553.448 1 1 1zm1-8h4v6h-4z"/><path d="m8 50h6c.552 0 1-.447 1-1v-8c0-.553-.448-1-1-1h-6c-.552 0-1 .447-1 1v8c0 .553.448 1 1 1zm1-8h4v6h-4z"/></g></g></svg>