<svg id="Layer_1_copy_3" height="512" viewBox="0 0 64 64" width="512" xmlns="http://www.w3.org/2000/svg" data-name="Layer 1 copy 3"><path d="m41 46.233a20.116 20.116 0 1 0 -18 0v.767h18z" fill="#fcc325"/><g opacity=".2"><path d="m32 8.121a20.1 20.1 0 0 0 -18.687 27.55c4-4.545 16.348-16.515 36.1-17.471a20.092 20.092 0 0 0 -17.413-10.079z" fill="#fff"/></g><g opacity=".1"><path d="m21.829 45.6q.575.338 1.173.639l-.002.761h18v-.767a20.206 20.206 0 0 0 8.056-7.333 75.985 75.985 0 0 1 -27.227 6.7z" fill="#020202"/></g><path d="m23 47h18v12h-18z" fill="#23a8cc"/><path d="m23 59 2.412 4h13.588l2-4z" fill="#1d7d9f"/><g fill="#043c49"><path d="m23 47.234a1.008 1.008 0 0 1 -.447-.105 21.116 21.116 0 1 1 18.895 0 1 1 0 0 1 -.9-1.789 19.116 19.116 0 1 0 -17.1 0 1 1 0 0 1 -.448 1.894z"/><path d="m41 60h-18a1 1 0 0 1 -1-1v-12a1 1 0 0 1 1-1h18a1 1 0 0 1 1 1v12a1 1 0 0 1 -1 1zm-17-2h16v-10h-16z"/><path d="m39 64h-13.588a1 1 0 0 1 -.856-.483l-2.412-4a1 1 0 0 1 .856-1.517h18a1 1 0 0 1 .895 1.447l-2 4a1 1 0 0 1 -.895.553zm-13.023-2h12.405l1-2h-14.611z"/><path d="m30 56h-7a1 1 0 0 1 0-2h7a1 1 0 0 1 0 2z"/><path d="m35 56h-1a1 1 0 0 1 0-2h1a1 1 0 0 1 0 2z"/><path d="m41 56h-2a1 1 0 0 1 0-2h2a1 1 0 0 1 0 2z"/><path d="m32 4a1 1 0 0 1 -1-1v-2a1 1 0 0 1 2 0v2a1 1 0 0 1 -1 1z"/><path d="m40.181 5.376a1 1 0 0 1 -.945-1.327l.654-1.89a1 1 0 1 1 1.891.654l-.655 1.887a1 1 0 0 1 -.945.676z"/><path d="m47.46 9.354a1 1 0 0 1 -.785-1.618l1.237-1.572a1 1 0 1 1 1.572 1.236l-1.237 1.573a1 1 0 0 1 -.787.381z"/><path d="m53.04 15.5a1 1 0 0 1 -.541-1.842l1.683-1.08a1 1 0 1 1 1.08 1.684l-1.683 1.08a.994.994 0 0 1 -.539.158z"/><path d="m56.3 23.123a1 1 0 0 1 -.234-1.972l1.943-.47a1 1 0 1 1 .471 1.943l-1.943.47a.983.983 0 0 1 -.237.029z"/><path d="m58.876 31.591c-.032 0-.064 0-.1 0l-1.99-.192a1 1 0 0 1 .193-1.99l1.99.192a1 1 0 0 1 -.1 2z"/><path d="m56.547 40.242a1 1 0 0 1 -.415-.091l-1.818-.832a1 1 0 0 1 .832-1.818l1.818.832a1 1 0 0 1 -.417 1.909z"/><path d="m51.518 47.656a.994.994 0 0 1 -.69-.277l-1.447-1.379a1 1 0 1 1 1.381-1.445l1.446 1.382a1 1 0 0 1 -.69 1.723z"/><path d="m23.694 5.376a1 1 0 0 1 -.945-.673l-.654-1.89a1 1 0 1 1 1.891-.654l.654 1.89a1 1 0 0 1 -.945 1.327z"/><path d="m16.415 9.354a1 1 0 0 1 -.787-.382l-1.236-1.572a1 1 0 0 1 1.572-1.236l1.236 1.572a1 1 0 0 1 -.785 1.618z"/><path d="m10.836 15.5a.994.994 0 0 1 -.539-.158l-1.684-1.08a1 1 0 1 1 1.08-1.684l1.684 1.08a1 1 0 0 1 -.541 1.842z"/><path d="m7.577 23.123a.97.97 0 0 1 -.235-.028l-1.942-.47a1 1 0 0 1 .469-1.943l1.944.47a1 1 0 0 1 -.233 1.972z"/><path d="m5 31.591a1 1 0 0 1 -.095-2l1.995-.191a1 1 0 0 1 .191 1.99l-1.991.196c-.037.003-.069.005-.1.005z"/><path d="m7.328 40.242a1 1 0 0 1 -.417-1.909l1.818-.833a1 1 0 0 1 .832 1.818l-1.818.832a1 1 0 0 1 -.415.092z"/><path d="m12.358 47.656a1 1 0 0 1 -.691-1.723l1.445-1.382a1 1 0 1 1 1.388 1.449l-1.45 1.379a1 1 0 0 1 -.692.277z"/><path d="m41 52h-18a1 1 0 0 1 0-2h18a1 1 0 0 1 0 2z"/><path d="m33.131 36.381h-2.466a3.713 3.713 0 0 1 -3.765-3.654v-1.366a1 1 0 0 1 2 0v1.365a1.712 1.712 0 0 0 1.761 1.654h2.466a1.712 1.712 0 0 0 1.761-1.654v-1a1.629 1.629 0 0 0 -.722-1.335l-5.627-3.405a3.651 3.651 0 0 1 -1.639-3.019 3.713 3.713 0 0 1 3.761-3.654h2.466a3.713 3.713 0 0 1 3.761 3.654v.36a1 1 0 1 1 -2 0v-.36a1.712 1.712 0 0 0 -1.761-1.654h-2.462a1.712 1.712 0 0 0 -1.765 1.654 1.628 1.628 0 0 0 .723 1.335l5.626 3.405a3.651 3.651 0 0 1 1.639 3.015v1a3.713 3.713 0 0 1 -3.757 3.659z"/><path d="m32 22a1 1 0 0 1 -1-1v-3a1 1 0 0 1 2 0v3a1 1 0 0 1 -1 1z"/><path d="m32 48a1 1 0 0 1 -1-1v-11a1 1 0 0 1 2 0v11a1 1 0 0 1 -1 1z"/></g></svg>