<svg id="Capa_1" enable-background="new 0 0 511.207 511.207" height="512" viewBox="0 0 511.207 511.207" width="512" xmlns="http://www.w3.org/2000/svg"><g><g><g><path d="m229.554 309.082c12.181 7.438 26.202 11.419 40.837 11.419 20.989 0 40.722-8.174 55.563-23.016l119.794-119.793c14.842-14.842 23.016-34.574 23.016-55.563 0-20.99-8.174-40.723-23.017-55.564-14.871-14.871-34.651-23.047-55.686-23.016-21.102.032-41.25 8.824-56.172 23.746l-37.321 37.32c-4.936 4.936-12.935 4.943-17.88.017l-6.865-6.838c-4.959-4.939-4.966-12.966-.017-17.915l38.064-38.064c44.355-44.355 116.27-44.355 160.625 0 44.355 44.355 44.355 116.27 0 160.625l-119.791 119.795c-39.872 39.872-102.007 43.891-146.381 12.078l-28.615-26.061-8.081-7.848c-6.917-6.718-7.214-17.726-.671-24.808 6.847-7.411 18.483-7.641 25.618-.506l8.148 8.147z" fill="#5f99d7"/></g><g><path d="m310.602 228.034 8.029 8.029c7.135 7.135 18.771 6.905 25.618-.506 6.543-7.082 6.246-18.09-.671-24.808l-7.96-7.731-28.596-26.08c-44.382-31.92-106.606-27.934-146.52 11.98l-119.793 119.793c-44.355 44.355-44.355 116.27 0 160.625 44.355 44.355 116.27 44.355 160.625 0l38.064-38.064c4.949-4.949 4.941-12.975-.017-17.915l-6.865-6.838c-4.945-4.926-12.945-4.918-17.88.018l-37.321 37.32c-14.922 14.922-35.07 23.714-56.172 23.746-21.035.032-40.815-8.145-55.686-23.016-14.843-14.842-23.017-34.574-23.017-55.564 0-20.989 8.174-40.722 23.016-55.563l119.794-119.793c14.842-14.842 34.574-23.016 55.563-23.016 14.695 0 28.772 4.01 40.987 11.506z" fill="#5f99d7"/></g><path d="m222.161 344.761 27.12-27.12c-6.94-1.925-13.569-4.798-19.727-8.559l-28.831-25.845-8.148-8.147c-2.176-2.176-4.772-3.658-7.522-4.469l-22.073 22.073c.836 2.837 2.378 5.506 4.647 7.709l8.081 7.848 28.615 26.061c5.682 4.074 11.658 7.55 17.838 10.449z" fill="#3c87d0"/><path d="m343.578 210.749-7.96-7.731-28.596-26.08c-5.673-4.08-11.641-7.565-17.813-10.472l-27.095 27.095c6.928 1.94 13.544 4.826 19.688 8.597l28.8 25.876 8.029 8.029c2.223 2.223 4.883 3.73 7.699 4.528l21.946-21.945c-.823-2.907-2.379-5.645-4.698-7.897z" fill="#3c87d0"/><path d="m338.469 200.167-138.247 138.247c-7.549 7.549-19.789 7.549-27.338 0-7.549-7.549-7.549-19.789 0-27.338l138.247-138.247c7.549-7.549 19.789-7.549 27.338 0 7.55 7.549 7.55 19.789 0 27.338z" fill="#5f99d7"/></g><g><path d="m475.801 36.512c-47.209-47.207-124.023-47.209-171.232 0l-38.064 38.064c-3.813 3.813-5.908 8.882-5.902 14.273.005 5.391 2.111 10.455 5.931 14.259l6.865 6.838c7.856 7.827 20.632 7.816 28.477-.027l37.32-37.32c13.667-13.668 32.212-21.522 50.879-21.55h.109c18.987 0 36.836 7.392 50.263 20.819 13.426 13.425 20.819 31.274 20.819 50.261 0 18.985-7.394 36.835-20.819 50.26l-1.412 1.412c-2.929 2.93-2.929 7.678 0 10.607 2.93 2.928 7.678 2.928 10.607 0l1.412-1.412c16.258-16.259 25.212-37.875 25.212-60.867 0-22.993-8.954-44.61-25.213-60.867-16.261-16.263-37.873-25.213-60.868-25.213-.044 0-.089 0-.132 0-22.608.033-45.011 9.489-61.465 25.942l-37.32 37.32c-2.005 2.006-5.272 2.012-7.283.008l-6.865-6.838c-.977-.973-1.516-2.269-1.517-3.647-.002-1.38.534-2.677 1.509-3.651l38.065-38.063c20.035-20.036 46.674-31.07 75.009-31.07s54.974 11.035 75.009 31.071c20.036 20.035 31.07 46.674 31.07 75.009s-11.034 54.974-31.07 75.009l-119.795 119.793c-17.883 17.883-41.598 28.803-66.776 30.746-21.918 1.688-43.781-3.465-62.47-14.588l14.683-14.683c12.145 6.291 25.701 9.594 39.554 9.594 22.992 0 44.608-8.954 60.867-25.212l95.78-95.78c2.929-2.93 2.929-7.678 0-10.607-2.93-2.928-7.678-2.928-10.607 0l-95.78 95.78c-13.425 13.426-31.274 20.819-50.26 20.819-9.814 0-19.442-2.003-28.303-5.845l68.515-68.515 2.725 2.725c4.784 4.785 11.106 7.402 17.852 7.402.171 0 .344-.002.516-.005 6.938-.137 13.353-3.02 18.063-8.116 9.38-10.151 8.961-25.647-.953-35.277l-2.677-2.6c8.029-10.51 7.249-25.639-2.354-35.245-5.068-5.067-11.806-7.857-18.973-7.857-7.039 0-13.659 2.696-18.695 7.593-22.032-14.123-48.27-20.766-74.592-18.748-28.778 2.201-55.88 14.668-76.315 35.103l-119.794 119.791c-47.208 47.209-47.208 124.023 0 171.233 20.651 20.65 48.051 33.14 77.151 35.166 2.82.196 5.634.294 8.445.294 25.901-.001 51.2-8.283 72.022-23.721 3.327-2.467 4.024-7.164 1.558-10.491s-7.164-4.025-10.491-1.558c-20.212 14.985-45.249 22.266-70.492 20.512-25.491-1.775-49.494-12.717-67.586-30.811-20.036-20.035-31.07-46.674-31.07-75.009s11.034-54.974 31.07-75.009l119.793-119.793c17.902-17.903 41.645-28.825 66.852-30.754 21.964-1.675 43.846 3.512 62.544 14.683l-14.674 14.674c-12.183-6.343-25.794-9.673-39.713-9.673-22.992 0-44.608 8.954-60.867 25.212l-119.794 119.794c-16.258 16.259-25.212 37.875-25.212 60.867 0 22.993 8.954 44.609 25.213 60.867 16.261 16.263 37.873 25.213 60.869 25.213h.132c22.608-.034 45.011-9.49 61.464-25.942l37.32-37.32c2.004-2.007 5.271-2.013 7.283-.008l6.865 6.838c.977.973 1.516 2.269 1.517 3.648s-.535 2.675-1.509 3.649l-27.362 27.36c-2.929 2.93-2.929 7.678 0 10.606s7.678 2.93 10.606.001l27.362-27.36c3.812-3.812 5.907-8.88 5.902-14.271s-2.111-10.456-5.931-14.261l-6.865-6.838c-7.858-7.828-20.634-7.816-28.477.027l-37.32 37.32c-13.666 13.667-32.211 21.521-50.879 21.55-.037 0-.072 0-.109 0-18.987 0-36.836-7.392-50.263-20.819-13.426-13.425-20.819-31.274-20.819-50.261 0-18.985 7.394-36.835 20.819-50.26l119.794-119.793c13.425-13.426 31.274-20.819 50.26-20.819 9.881 0 19.566 2.026 28.471 5.915l-8.788 8.788c-2.929 2.93-2.929 7.678 0 10.607 2.93 2.928 7.678 2.928 10.607 0l45.33-45.33c2.234-2.234 5.205-3.465 8.365-3.465s6.131 1.23 8.365 3.464c4.612 4.613 4.613 12.119 0 16.731l-138.244 138.25c-4.615 4.613-12.12 4.613-16.731 0-2.235-2.234-3.466-5.205-3.466-8.365s1.23-6.131 3.466-8.365l70.316-70.316c2.929-2.93 2.929-7.678 0-10.607-2.93-2.928-7.678-2.928-10.607 0l-37.174 37.175-2.844-2.845c-4.907-4.906-11.442-7.506-18.368-7.396-6.938.138-13.353 3.02-18.062 8.116-9.38 10.151-8.961 25.647.953 35.277l2.799 2.718c-3.551 4.647-5.478 10.296-5.478 16.244 0 7.166 2.791 13.904 7.858 18.973 5.231 5.23 12.101 7.846 18.973 7.845 6.753 0 13.507-2.534 18.703-7.588 19.415 12.405 42.079 19.019 65.184 19.019 3.107 0 6.223-.119 9.338-.359 28.745-2.22 55.816-14.684 76.229-35.096l119.793-119.793c47.207-47.211 47.207-124.025-.001-171.235zm-303.334 244.174c1.914-2.071 4.521-3.243 7.34-3.299 2.847-.063 5.471 1.012 7.466 3.007l2.844 2.844-14.484 14.485-2.779-2.699c-4.03-3.915-4.2-10.212-.387-14.338zm166.273-50.219c-1.914 2.071-4.521 3.243-7.341 3.299-2.794.054-5.469-1.012-7.464-3.007l-2.726-2.726 14.486-14.485 2.658 2.581c4.03 3.914 4.199 10.212.387 14.338z"/><path d="m58.167 256.06c.09.003.179.005.269.005 4.02 0 7.348-3.187 7.49-7.236 3.495-99.403 83.462-179.269 182.577-182.955 2.543.733 5.396.1 7.399-1.909l.372-.373c2.163-2.169 2.79-5.436 1.582-8.252-1.206-2.814-4.026-4.594-7.068-4.542-108.262 2.537-196.048 89.291-199.853 197.503-.145 4.14 3.092 7.613 7.232 7.759z"/><path d="m453.186 254.936c-.086-.003-.173-.004-.259-.004-4.024 0-7.354 3.192-7.491 7.246-3.41 100.535-84.872 181.038-185.456 183.273-4.141.092-7.423 3.523-7.331 7.665.091 4.084 3.43 7.333 7.495 7.333.056 0 .113-.001.17-.002 108.533-2.412 196.434-89.279 200.114-197.762.14-4.139-3.101-7.609-7.242-7.749z"/></g></g></svg>