<?xml version="1.0" encoding="iso-8859-1"?>
<!-- Generator: Adobe Illustrator 19.0.0, SVG Export Plug-In . SVG Version: 6.00 Build 0)  -->
<svg version="1.1" id="Layer_1" xmlns="http://www.w3.org/2000/svg" xmlns:xlink="http://www.w3.org/1999/xlink" x="0px" y="0px"
	 viewBox="0 0 511.999 511.999" style="enable-background:new 0 0 511.999 511.999;" xml:space="preserve">
<path style="fill:#395087;" d="M250.139,316.468L76.927,489.68c-15.079,15.079-39.528,15.079-54.607,0l0,0
	c-15.079-15.079-15.079-39.528,0-54.607l173.213-173.213L250.139,316.468z"/>
<path style="fill:#76CEF5;" d="M453.386,58.614c-63.549-63.549-166.584-63.549-230.133,0s-63.549,166.584,0,230.133
	s166.584,63.549,230.133,0C516.936,225.197,516.936,122.163,453.386,58.614z M422.181,257.542
	c-22.4,22.4-52.184,34.737-83.862,34.737s-61.461-12.337-83.862-34.737c-22.401-22.4-34.737-52.184-34.737-83.862
	s12.337-61.462,34.737-83.862s52.184-34.737,83.862-34.737c31.679,0,61.462,12.337,83.862,34.737
	c22.4,22.4,34.737,52.184,34.737,83.862S444.581,235.142,422.181,257.542z"/>
<g>
	<path style="fill:#231F20;" d="M461.187,50.812L461.187,50.812c-67.75-67.749-177.987-67.749-245.736,0
		c-55.555,55.555-65.542,139.673-29.987,205.512L14.517,427.271c-19.356,19.358-19.356,50.853,0,70.211
		c9.679,9.678,22.392,14.518,35.105,14.518s25.427-4.84,35.105-14.518l170.897-170.897c25.099,13.618,53.339,20.857,82.694,20.857
		c46.414,0,90.049-18.075,122.869-50.894C528.937,228.798,528.937,118.562,461.187,50.812z M69.126,481.879
		c-5.21,5.21-12.136,8.079-19.502,8.079c-7.367,0-14.294-2.87-19.503-8.079s-8.079-12.136-8.079-19.503
		c0-7.366,2.87-14.294,8.079-19.502l167.383-167.383c5.336,7.372,11.313,14.421,17.949,21.057
		c6.596,6.596,13.636,12.586,21.041,17.964L69.126,481.879z M445.585,280.946c-28.651,28.652-66.747,44.431-107.266,44.431
		c-40.52,0-78.614-15.779-107.266-44.431c-59.146-59.146-59.146-155.385,0-214.531c29.573-29.574,68.419-44.359,107.266-44.359
		c38.845,0,77.692,14.787,107.266,44.359C504.73,125.561,504.73,221.799,445.585,280.946z"/>
	<path style="fill:#231F20;" d="M429.982,82.017c-24.484-24.483-57.038-37.968-91.663-37.968s-67.179,13.484-91.663,37.968
		s-37.968,57.038-37.968,91.663s13.484,67.179,37.968,91.663c24.484,24.484,57.038,37.968,91.663,37.968
		s67.179-13.484,91.663-37.968c24.484-24.484,37.968-57.038,37.968-91.663S454.466,106.5,429.982,82.017z M414.38,249.741
		c-20.316,20.317-47.329,31.507-76.061,31.507c-28.454,0-55.216-10.98-75.466-30.925c1.549-0.527,3.006-1.396,4.241-2.63l21.6-21.6
		c4.308-4.308,4.308-11.294,0-15.603c-4.308-4.308-11.294-4.308-15.603,0l-21.6,21.6c-0.757,0.757-1.374,1.6-1.865,2.493
		c-12.268-17.784-18.875-38.834-18.875-60.903c0-28.732,11.189-55.744,31.505-76.061c20.317-20.317,47.329-31.505,76.061-31.505
		c21.914,0,42.824,6.516,60.53,18.62l-65.077,65.078c-4.308,4.308-4.308,11.294,0,15.602c2.154,2.155,4.978,3.231,7.801,3.231
		s5.648-1.078,7.801-3.231l66.382-66.382c19.441,20.149,30.13,46.577,30.13,74.651C445.885,202.412,434.697,229.425,414.38,249.741z
		"/>
	<path style="fill:#231F20;" d="M303.777,179.804l-1.103,1.103c-4.308,4.308-4.308,11.294,0,15.603
		c2.155,2.155,4.978,3.231,7.801,3.231s5.648-1.077,7.801-3.231l1.103-1.103c4.308-4.308,4.308-11.294,0-15.603
		C315.071,175.496,308.085,175.496,303.777,179.804z"/>
	<path style="fill:#231F20;" d="M380.919,166.996l-50.403,50.403c-4.308,4.308-4.308,11.294,0,15.603
		c2.155,2.155,4.978,3.231,7.801,3.231c2.823,0,5.647-1.077,7.801-3.231l50.403-50.403c4.308-4.308,4.308-11.294,0-15.603
		C392.213,162.686,385.229,162.687,380.919,166.996z"/>
</g>
<g>
</g>
<g>
</g>
<g>
</g>
<g>
</g>
<g>
</g>
<g>
</g>
<g>
</g>
<g>
</g>
<g>
</g>
<g>
</g>
<g>
</g>
<g>
</g>
<g>
</g>
<g>
</g>
<g>
</g>
</svg>
