<?xml version="1.0" encoding="iso-8859-1"?>
<!-- Generator: Adobe Illustrator 19.0.0, SVG Export Plug-In . SVG Version: 6.00 Build 0)  -->
<svg version="1.1" id="Layer_1" xmlns="http://www.w3.org/2000/svg" xmlns:xlink="http://www.w3.org/1999/xlink" x="0px" y="0px"
	 viewBox="0 0 503.9 503.9" style="enable-background:new 0 0 503.9 503.9;" xml:space="preserve">
<path style="fill:#4BB19B;" d="M210.8,444.212c-6.8,6.8-6.8,18,0,24.8c3.6,3.6,8,5.2,12.4,5.2s8.8-1.6,12.4-5.2l228-228
	c48.4-48.4,48.4-127.2,0-175.2c-30.8-30.8-74-42-114-33.6c-22.4,4.8-44,16-61.2,33.6L9.2,345.012c-3.2,3.2-5.2,7.6-5.2,12.4
	s2,9.2,5.2,12.4l99.2,99.2c6.8,6.8,18,6.8,24.8,0l253.6-253.6c6.8-6.8,6.8-18,0-24.8l-49.6-49.6c-3.2-3.2-7.6-5.2-12.4-5.2
	c-4.8,0-9.2,2-12.4,5.2L110,343.412c-6.8,6.8-6.8,18,0,24.8s18,6.8,24.8,0l190-190l24.8,24.8l-228.8,228.8l-74.4-74.4l266.8-266.8
	c34.8-34.8,91.2-34.8,125.6,0c34.8,34.8,34.8,91.2,0,125.6L210.8,444.212z"/>
<path d="M120.8,478.212c-5.6,0-11.2-2.4-15.2-6.4l-99.2-99.2c-4-4-6.4-9.6-6.4-15.2s2.4-11.2,6.4-15.2l233.2-233.2
	c1.6-1.6,4-1.6,5.6,0s1.6,4,0,5.6L12,347.812c-2.4,2.4-4,6-4,9.6s1.6,7.2,4,9.6l99.2,99.2c2.4,2.4,6,4,9.6,4l0,0
	c3.6,0,7.2-1.6,9.6-4l253.6-253.6c2.4-2.4,4-6,4-9.6s-1.6-7.2-4-9.6l-49.6-49.6c-2.4-2.4-6-4-9.6-4s-7.2,1.6-9.6,4l-202.4,202.4
	c-2.4,2.4-4,6-4,9.6s1.6,7.2,4,9.6s6,4,9.6,4l0,0c3.6,0,6.8-1.6,9.6-4l190-190c1.6-1.6,4-1.6,5.6,0l24.8,24.8
	c0.8,0.8,1.2,1.6,1.2,2.8c0,1.2-0.4,2-1.2,2.8l-228.8,228.8c-1.6,1.6-4,1.6-5.6,0l-74.4-74.4c-0.8-0.8-1.2-1.6-1.2-2.8
	s0.4-2,1.2-2.8l266.8-266.8c36.4-36.4,95.2-36.4,131.6,0s36.4,95.2,0,131.6l-186.8,186.8c-1.6,1.6-4,1.6-5.6,0s-1.6-4,0-5.6
	l186.8-186.8c33.2-33.2,33.2-87.2,0-120c-33.2-33.2-87.2-33.2-120,0l-264,264l68.8,68.8l223.2-223.2l-19.2-19.2L138,371.412
	c-4,4-9.6,6.4-15.2,6.4l0,0c-5.6,0-11.2-2.4-15.2-6.4s-6.4-9.6-6.4-15.2s2.4-11.2,6.4-15.2l202.4-202.4c4-4,9.6-6.4,15.2-6.4
	c5.6,0,11.2,2.4,15.2,6.4l49.6,49.6c4,4,6.4,9.6,6.4,15.2s-2.4,11.2-6.4,15.2l-254,253.2C132,475.812,126.4,478.212,120.8,478.212
	L120.8,478.212z"/>
<path d="M223.2,478.212c-5.6,0-11.2-2.4-15.2-6.4s-6.4-9.6-6.4-15.2s2.4-11.2,6.4-15.2c1.6-1.6,4-1.6,5.6,0s1.6,4,0,5.6
	c-2.4,2.4-4,6-4,9.6s1.6,7.2,4,9.6c5.2,5.2,14,5.2,19.2,0l228-228c46.8-46.8,46.8-122.8,0-169.6c-28.8-28.8-70-41.2-110.4-32.4
	c-22.4,4.8-43.2,16-59.2,32.4c-1.6,1.6-4,1.6-5.6,0s-1.6-4,0-5.6c17.6-17.6,39.2-29.2,63.2-34.4c42.8-9.2,86.8,3.6,117.6,34.4
	c50,50,50,131.2,0,181.2l-228,228C234.4,475.812,229.2,478.212,223.2,478.212z"/>
<g>
</g>
<g>
</g>
<g>
</g>
<g>
</g>
<g>
</g>
<g>
</g>
<g>
</g>
<g>
</g>
<g>
</g>
<g>
</g>
<g>
</g>
<g>
</g>
<g>
</g>
<g>
</g>
<g>
</g>
</svg>
