<svg xmlns="http://www.w3.org/2000/svg" xmlns:xlink="http://www.w3.org/1999/xlink" id="Capa_1" x="0" y="0" version="1.1" viewBox="0 0 256.4 256.4" xml:space="preserve" style="enable-background:new 0 0 256.4 256.4"><g><path style="fill:#4a566e" d="M38.2,0h180c19.6,0,35.6,16,35.6,35.6v185.2c0,19.6-16,35.6-35.6,35.6h-180 c-19.6,0-35.6-16-35.6-35.6V35.2C2.6,16,18.6,0,38.2,0z"/><path style="fill:#00b594" d="M118.6,167.6l-52.4-52.8L2.6,178.4V192v28.8c0,19.6,16,35.6,35.6,35.6h180c19.6,0,35.6-16,35.6-35.6 V192v-39.6l-59.6-60L118.6,167.6z"/><circle style="fill:#ffcc03" cx="117.4" cy="84.8" r="22.4"/></g></svg>