<?xml version="1.0" encoding="iso-8859-1"?>
<!-- Generator: Adobe Illustrator 19.0.0, SVG Export Plug-In . SVG Version: 6.00 Build 0)  -->
<svg version="1.1" id="Capa_1" xmlns="http://www.w3.org/2000/svg" xmlns:xlink="http://www.w3.org/1999/xlink" x="0px" y="0px"
	 viewBox="0 0 469.333 469.333" style="enable-background:new 0 0 469.333 469.333;" xml:space="preserve">
<path style="fill:#303C42;" d="M469.333,146.605c0-21.726-21.889-57.513-55.785-91.165c-30.656-30.456-69.27-56.882-93.946-55.378
	c-6.024,0.367-11.218,2.527-15.262,6.551c-0.627,0.621-1.276,1.418-1.914,2.261l-0.034-0.029c-0.09,0.111-0.147,0.237-0.237,0.348
	c-0.087,0.121-0.166,0.249-0.254,0.374C287,28.183,278.852,50.634,277.533,73.697l-78.724,57.205
	c-42.179-7.43-84.663,0.883-120.261,23.076c-10.393,6.489-16.022,18.654-14.336,31.006c7.008,50.945,29.049,97.136,61.365,134.114
	L2.851,451.409c-3.901,4.208-3.787,10.749,0.27,14.8c2.081,2.083,4.807,3.125,7.532,3.125c2.601,0,5.202-0.948,7.251-2.854
	l132.164-122.864c36.94,32.351,83.078,54.412,133.964,61.424c1.467,0.208,2.923,0.302,4.37,0.302
	c10.757,0,20.891-5.468,26.602-14.654c16.948-27.236,25.905-58.544,25.905-90.551c0-9.977-1.138-20.118-2.946-30.237l57.154-78.442
	c23.952-1.432,47.701-10.59,66.644-26.422l-0.172-0.176c0.338-0.296,0.792-0.384,1.116-0.706
	C465.734,161.155,469.333,155.676,469.333,146.605z"/>
<path style="fill:#0288D1;" d="M322.459,21.156c9.698,0,39.031,12.104,76.583,49.375c42.156,41.823,52.396,73.51,49.26,78.396
	c-4.979,3.385-36.917-6.677-79.344-48.792c-42.156-41.823-52.396-73.51-49.26-78.396C320.271,21.354,321.198,21.156,322.459,21.156z
	"/>
<path style="opacity:0.1;enable-background:new    ;" d="M322.459,21.156c9.698,0,39.031,12.104,76.583,49.375
	c42.156,41.823,52.396,73.51,49.26,78.396c-4.979,3.385-36.917-6.677-79.344-48.792c-42.156-41.823-52.396-73.51-49.26-78.396
	C320.271,21.354,321.198,21.156,322.459,21.156z"/>
<g>
	<path style="fill:#0288D1;" d="M389.334,170.667c-49.99,0-90.667-40.677-90.667-90.667c0-0.186,0.047-0.366,0.048-0.552h0.004
		l-0.003-0.01c0.069-10.635,2.112-20.991,5.884-30.828c8.813,19.816,26.163,43.69,49.337,66.672
		c21.167,21.004,46.051,39.832,67.605,49.125C411.308,168.447,400.495,170.667,389.334,170.667z"/>
	<path style="fill:#0288D1;" d="M279.257,99.018c8.016,46.443,44.521,82.988,90.949,91.047l-47.122,64.602
		c-56.24-8.021-100.573-52.49-108.448-108.75L279.257,99.018z"/>
	<path style="fill:#0288D1;" d="M297.292,379.396c-1.99,3.198-6.167,5.042-9.99,4.51C182.834,369.521,99.813,286.51,85.428,182.042
		c-0.542-3.896,1.313-8.01,4.5-10c30.939-19.285,67.708-26.656,104.556-20.348c10.184,63.354,59.747,112.969,123.125,123.165
		c1.449,8.465,2.392,16.935,2.392,25.255C320,328.135,312.146,355.552,297.292,379.396z"/>
</g>
<g>
	<path style="opacity:0.2;fill:#FFFFFF;enable-background:new    ;" d="M310,91.333c0-0.186,0.047-0.366,0.048-0.552h0.004
		l-0.003-0.01c0.055-8.432,1.674-16.605,4.09-24.568c-3.762-6.095-7.064-12.029-9.539-17.594
		c-3.772,9.837-5.815,20.193-5.884,30.828l0.003,0.01h-0.004c-0.001,0.186-0.048,0.366-0.048,0.552
		c0,27.884,12.926,52.559,32.796,69.204C318.266,133.453,310,113.439,310,91.333z"/>
	<path style="opacity:0.2;fill:#FFFFFF;enable-background:new    ;" d="M225.969,157.25l57.49-41.723
		c-1.792-5.337-3.224-10.844-4.202-16.509l-64.621,46.898c4.335,30.967,19.973,58.073,42.305,77.784
		C240.79,205.379,229.524,182.642,225.969,157.25z"/>
	<path style="opacity:0.2;fill:#FFFFFF;enable-background:new    ;" d="M96.761,193.375c-0.542-3.896,1.313-8.01,4.5-10
		c28.461-17.741,61.859-25.253,95.712-21.454c-0.802-3.423-1.926-6.715-2.49-10.227c-36.848-6.309-73.617,1.063-104.556,20.348
		c-3.188,1.99-5.042,6.104-4.5,10c7.574,55.004,34.299,103.926,73.04,140.148C125.898,287.355,103.571,242.833,96.761,193.375z"/>
</g>
<linearGradient id="SVGID_1_" gradientUnits="userSpaceOnUse" x1="-64.2429" y1="615.5806" x2="-49.0042" y2="608.4728" gradientTransform="matrix(21.3333 0 0 -21.3333 1430.1111 13315.2227)">
	<stop  offset="0" style="stop-color:#FFFFFF;stop-opacity:0.2"/>
	<stop  offset="1" style="stop-color:#FFFFFF;stop-opacity:0"/>
</linearGradient>
<path style="fill:url(#SVGID_1_);" d="M469.333,146.605c0-21.726-21.889-57.513-55.785-91.165
	c-30.656-30.456-69.27-56.882-93.946-55.378c-6.024,0.367-11.218,2.527-15.262,6.551c-0.627,0.621-1.276,1.418-1.914,2.261
	l-0.034-0.029c-0.09,0.111-0.147,0.237-0.237,0.348c-0.087,0.121-0.166,0.249-0.254,0.374C287,28.183,278.852,50.634,277.533,73.697
	l-78.724,57.205c-42.179-7.43-84.663,0.883-120.261,23.076c-10.393,6.489-16.022,18.654-14.336,31.006
	c7.008,50.945,29.049,97.136,61.365,134.114L2.851,451.409c-3.901,4.208-3.787,10.749,0.27,14.8
	c2.081,2.083,4.807,3.125,7.532,3.125c2.601,0,5.202-0.948,7.251-2.854l132.164-122.864c36.94,32.351,83.078,54.412,133.964,61.424
	c1.467,0.208,2.923,0.302,4.37,0.302c10.757,0,20.891-5.468,26.602-14.654c16.948-27.236,25.905-58.544,25.905-90.551
	c0-9.977-1.138-20.118-2.946-30.237l57.154-78.442c23.952-1.432,47.701-10.59,66.644-26.422l-0.172-0.176
	c0.338-0.296,0.792-0.384,1.116-0.706C465.734,161.155,469.333,155.676,469.333,146.605z"/>
<g>
</g>
<g>
</g>
<g>
</g>
<g>
</g>
<g>
</g>
<g>
</g>
<g>
</g>
<g>
</g>
<g>
</g>
<g>
</g>
<g>
</g>
<g>
</g>
<g>
</g>
<g>
</g>
<g>
</g>
</svg>
