<svg xmlns="http://www.w3.org/2000/svg" xmlns:xlink="http://www.w3.org/1999/xlink" id="Layer_1" x="0" y="0" version="1.1" viewBox="0 0 500.743 500.743" xml:space="preserve" style="enable-background:new 0 0 500.743 500.743"><path style="fill:#df5c4e" d="M289.743,365.143c4,0,7.2-2.8,8.8-8.4l18-55.6c3.6-10.8,12.8-26,20.8-34l96-96	c8-8,23.2-17.2,34.4-20.4l18.4-5.2c4.4-1.2,7.2-3.6,8-6.8s-0.4-6.4-4-9.6l-118.4-118.4c-2.8-2.8-5.6-4-8-4c-4,0-6.8,3.2-8.4,8.4	l-5.2,18.4c-1.6,5.2-4.4,10.8-7.6,16.8c0.4,0,1.2,0,1.6,0.4l-2.8,2.8l-0.4-0.4c-3.6,5.6-7.2,10.8-11.2,14.8l-96,96	c-2.8,2.8-6.8,6-11.2,9.2l-3.2,2.4c0,0,0-0.4-0.4-0.4c-6.4,4-13.6,7.6-19.6,9.6l-55.6,18c-4.4,1.6-7.2,4-8,7.2s0.8,6.8,4,10	l64.8,64.8l18.4,18.4l0,0l58,58C284.143,363.943,286.943,365.143,289.743,365.143z"/><g><polygon style="fill:#e36d60" points="241.743 197.943 180.143 259.543 204.943 284.743 208.143 287.943 270.143 225.943"/><rect style="fill:#e36d60" width="40" height="48" x="377.476" y="46.448" transform="matrix(0.7071 0.7071 -0.7071 0.7071 166.232 -260.424)"/><rect style="fill:#e36d60" width="40" height="168.398" x="298.179" y="65.03" transform="matrix(0.7071 0.7071 -0.7071 0.7071 198.7133 -181.2783)"/></g><polygon style="fill:#e8e3e3" points="76.543 401.943 13.343 487.543 98.943 424.343 218.943 304.343 202.543 287.943 196.543 281.943"/><path style="fill:#ccc" d="M218.943,306.743l-16.4-16.4L218.943,306.743z"/><path d="M289.743,371.143c-4.4,0-8.8-2-12.4-5.6l-141.6-141.6c-4.8-4.8-6.8-10.4-5.6-15.6s5.6-9.2,12-11.6l55.6-18	c10-3.6,24.4-12.4,31.6-19.6l96-96c7.2-7.2,16-22,19.2-32l5.2-18.4c2-6.4,6-10.8,11.2-12.4c5.2-1.2,10.8,0.8,15.6,5.2l118.4,118.4	c4.8,4.8,6.4,10.4,5.2,15.6c-1.2,5.2-5.6,9.2-12,11.2l-18.4,5.2c-9.6,2.8-24,11.2-32,19.2l-96,96c-8,7.6-16,22.4-19.6,31.6l-17.6,56	c-2.4,6.4-6.4,10.8-11.6,12C291.743,371.143,290.943,371.143,289.743,371.143z M363.743,8.743c-0.4,0-0.8,0-1.2,0	c-2.4,0.8-4.4,3.2-5.6,6.8l-5.2,18.4c-3.6,11.6-12.8,27.2-21.2,35.2l-96,96c-8,8-23.6,17.6-34.8,21.2l-55.6,18	c-3.6,1.2-6,3.2-6.8,5.6c-0.4,2.4,0.8,5.2,3.6,8l141.6,141.6c2.8,2.8,5.6,4,8,3.2c2.4-0.4,4.4-2.8,6-6.4l17.6-56	c3.6-10.8,12.8-26.4,21.6-34.8l96-96c8-7.6,23.2-17.6,35.2-21.2l18.4-5.2c3.6-1.2,6-3.2,6.4-5.2c0.8-2.4-0.4-5.2-3.2-8l-118.4-118.4	l0,0C368.143,9.943,366.143,8.743,363.743,8.743z"/><path d="M4.143,500.743c-1.2,0-2-0.4-2.8-1.2c-1.2-1.2-1.6-3.6-0.4-5.2l70.8-96l0.4-0.4l121.6-121.6c1.6-1.6,4-1.6,5.6,0l25.2,25.2	c1.6,1.6,1.6,4,0,5.6l-121.6,121.6l-0.4,0.4l-96,70.8C5.743,500.343,4.943,500.743,4.143,500.743z M78.143,403.543l-54.8,74.4	l74.4-54.8l118.4-118.4l-19.6-19.6L78.143,403.543z"/><path d="M420.143,133.943c-1.2,0-2-0.4-2.8-1.2l-77.6-78c-1.6-1.6-1.6-4,0-5.6s4-1.6,5.6,0l77.6,78c1.6,1.6,1.6,4,0,5.6	C422.143,133.543,421.343,133.943,420.143,133.943z"/><path d="M298.543,255.543c-1.2,0-2-0.4-2.8-1.2l-78-77.6c-1.6-1.6-1.6-4,0-5.6s4-1.6,5.6,0l78,77.6c1.6,1.6,1.6,4,0,5.6	C300.543,255.143,299.743,255.543,298.543,255.543z"/></svg>