<svg id="Capa_1" enable-background="new 0 0 512.113 512.113" height="512" viewBox="0 0 512.113 512.113" width="512" xmlns="http://www.w3.org/2000/svg"><g><g><path d="m343.184 364.451-57.129-57.114c-5.859-5.859-5.859-15.352 0-21.211s15.352-5.859 21.211 0l57.129 57.114c5.859 5.859 5.859 15.352 0 21.211-5.86 5.859-15.352 5.86-21.211 0z" fill="#5c6699"/></g><path d="m307.266 286.126c-5.744-5.744-14.938-5.777-20.819-.26l78.203 78.203c5.524-5.88 5.491-15.082-.255-20.828z" fill="#404a80"/><g><g id="Searching_2_"><g><path d="m180 .057c-49.799 0-94.501 20.099-126.899 52.5-32.701 32.7-53.101 77.7-53.101 127.5 0 99.3 80.7 180 180 180 49.799 0 94.799-20.4 127.5-53.101 32.401-32.399 52.5-77.1 52.5-126.899 0-99.3-80.7-180-180-180z" fill="#80bfff"/></g></g><g><path d="m498.8 435.257-92-92c-17.401-17.701-45.899-17.701-63.3-.3l-.3.3c-17.701 17.401-17.701 46.199 0 63.6l92 92c8.399 8.401 19.799 13.2 31.8 13.2s23.401-4.799 31.8-13.2l.3-.3c17.401-17.401 17.401-45.9-.3-63.3z" fill="#f66"/></g></g><g><path d="m499.1 498.556-155.6-155.6c17.401-17.401 45.899-17.401 63.3.3l92 92c17.701 17.401 17.701 45.9.3 63.3z" fill="#e64d2e"/><path d="m360 180.057c0 49.799-20.099 94.501-52.5 126.899l-254.399-254.399c32.399-32.401 77.1-52.5 126.899-52.5 99.3 0 180 80.7 180 180z" fill="#69f"/></g><g><path d="m180 60.057c-32.999 0-62.701 13.5-84.6 34.799-21.9 21.901-35.4 51.901-35.4 85.201 0 66.301 53.699 120 120 120 33.3 0 63.3-13.5 85.201-35.4 21.299-21.9 34.799-51.601 34.799-84.6 0-66.301-53.699-120-120-120z" fill="#edf5ff"/></g><path d="m300 180.057c0 32.999-13.5 62.701-34.799 84.6l-169.801-169.801c21.899-21.299 51.601-34.799 84.6-34.799 66.301 0 120 53.699 120 120z" fill="#d5e8fe"/></g></svg>