<svg xmlns="http://www.w3.org/2000/svg" id="Capa_1" width="512" height="512" enable-background="new 0 0 512.001 512.001" viewBox="0 0 512.001 512.001"><g><g><path fill="#FB5252" d="m269.008 196.234-13.008-26.338-13.008 26.338c-2.183 4.424-6.401 7.5-11.294 8.203l-29.063 4.219 21.035 20.508c3.53 3.442 5.142 8.408 4.307 13.271l-4.951 28.96 25.986-13.667c4.373-2.303 9.592-2.308 13.975 0l25.986 13.667-4.951-28.96c-.835-4.863.776-9.829 4.307-13.271l21.035-20.508-29.063-4.219c-4.891-.703-9.11-3.779-11.293-8.203z" class="active-path" data-old_color="#000000" data-original="#000000"/><path fill="#FB5252" d="m406.001 0h-300c-8.291 0-15 6.709-15 15v482c0 5.405 2.9 10.386 7.603 13.052 4.688 2.666 10.474 2.593 15.117-.19l142.28-85.371 142.28 85.371c4.646 2.782 10.419 2.854 15.117.19 4.702-2.666 7.603-7.646 7.603-13.052v-482c0-8.291-6.709-15-15-15zm-53.936 208.92-37.148 36.226 8.76 51.138c2.1 12.22-10.766 21.6-21.768 15.806l-45.908-24.141-45.908 24.141c-10.924 5.779-23.878-3.526-21.768-15.806l8.76-51.138-37.148-36.226c-8.861-8.639-3.998-23.789 8.32-25.576l51.328-7.456 22.969-46.523c5.039-10.254 21.855-10.254 26.895 0l22.969 46.523 51.328 7.456c12.296 1.784 17.195 16.922 8.319 25.576z" class="active-path" data-old_color="#000000" data-original="#000000"/></g></g></svg>