<?xml version="1.0"?>
<svg xmlns="http://www.w3.org/2000/svg" id="Capa_1" enable-background="new 0 0 512 512" height="512px" viewBox="0 0 512 512" width="512px"><g><g><path d="m406 0h-300c-8.284 0-15 6.716-15 15v482c0 5.404 2.907 10.39 7.609 13.053 4.702 2.662 10.474 2.59 15.108-.191l142.283-85.369 142.282 85.369c4.643 2.785 10.414 2.849 15.108.191 4.703-2.663 7.61-7.649 7.61-13.053v-482c0-8.284-6.716-15-15-15zm-15 470.507-127.283-76.369c-2.375-1.425-5.046-2.138-7.717-2.138s-5.342.713-7.717 2.138l-127.283 76.369v-440.507h270z" data-original="#000000" class="active-path" data-old_color="#000000" fill="#FB5252"/><path d="m197.085 245.143-8.771 51.133c-.965 5.627 1.348 11.315 5.967 14.671 4.611 3.35 10.735 3.803 15.797 1.142l45.922-24.142 45.92 24.142c5.055 2.657 11.18 2.214 15.797-1.142 4.619-3.356 6.933-9.043 5.968-14.671l-8.77-51.133 37.15-36.213c4.088-3.985 5.56-9.946 3.795-15.376s-6.458-9.388-12.108-10.209l-51.341-7.46-22.96-46.523c-2.527-5.121-7.742-8.362-13.451-8.362s-10.924 3.241-13.451 8.362l-22.96 46.523-51.341 7.46c-5.65.821-10.345 4.779-12.109 10.209-1.765 5.43-.293 11.391 3.795 15.377zm34.622-40.705c4.886-.71 9.109-3.778 11.294-8.206l12.999-26.339 12.999 26.339c2.185 4.427 6.409 7.496 11.294 8.206l29.067 4.224-21.033 20.502c-3.535 3.446-5.148 8.411-4.313 13.277l4.965 28.95-25.999-13.668c-4.369-2.297-9.59-2.298-13.96 0l-25.999 13.668 4.965-28.95c.834-4.866-.779-9.831-4.314-13.277l-21.034-20.502z" data-original="#000000" class="active-path" data-old_color="#000000" fill="#FB5252"/></g></g> </svg>
