<svg xmlns="http://www.w3.org/2000/svg" xmlns:xlink="http://www.w3.org/1999/xlink" id="Capa_1" x="0" y="0" version="1.1" viewBox="0 0 512 512" xml:space="preserve" style="enable-background:new 0 0 512 512"><polygon style="fill:#ffea84" points="76.286 153.735 0 72 128.685 72"/><path style="fill:#00c3ff" d="M356.785,373.962C445.679,353.625,512,274.06,512,179c0-45.515-15.214-87.471-40.82-121.082	C438.446,123.752,370.512,169,292,169c-7.671,0-15.236-0.447-22.682-1.288C269.766,163.87,270,159.962,270,156	c0-55.229-44.772-100-100-100S70,100.771,70,156c0,0.863,0.011,1.723,0.033,2.581C71.422,323.076,205.177,456,370,456	c51.375,0,99.727-12.923,142-35.682v-4.339c-0.667,0.006-1.332,0.021-2,0.021C454.019,416,401.627,400.66,356.785,373.962z"/><path style="fill:#00aaf0" d="M356.816,373.955c39.777-9.106,75.025-30.079,101.839-58.985c-0.341-0.202-0.686-0.397-1.027-0.6	c0.684-0.157,1.363-0.327,2.044-0.491C492.174,278.316,512,230.974,512,179c0-45.515-15.214-87.471-40.82-121.082	C438.446,123.752,370.512,169,292,169c-7.671,0-15.236-0.447-22.682-1.288C269.766,163.87,270,159.962,270,156	c0-52.138-39.903-94.948-90.834-99.578c-5.349,12.246-8.323,25.768-8.323,39.985c0,0.863,0.011,1.723,0.033,2.581	C171.925,223.191,248.446,329.378,356.816,373.955z"/></svg>