<svg id="Capa_1" enable-background="new 0 0 512 512" height="512" viewBox="0 0 512 512" width="512" xmlns="http://www.w3.org/2000/svg"><g><path d="m280.165 255.605h83.56v150.71h-83.56z" fill="#fcf2d0"/><path d="m280.165 255.605h83.56v30h-83.56z" fill="#fae0bd"/><path d="m200.703 358.11h-60.225c-43.815 0-79.462-35.647-79.462-79.461v-165.2c0-10.917 8.85-19.767 19.767-19.767s19.767 8.85 19.767 19.767v165.199c0 22.016 17.911 39.928 39.928 39.928h60.225c22.017 0 39.928-17.912 39.928-39.928v-35.992c0-10.917 8.85-19.767 19.767-19.767s19.767 8.85 19.767 19.767v35.992c0 43.815-35.646 79.462-79.462 79.462z" fill="#a3defe"/><path d="m260.398 222.89c-10.917 0-19.767 8.85-19.767 19.767v35.992c0 2.374-.22 4.696-.619 6.957h39.83c.2-2.295.323-4.612.323-6.957v-35.992c0-10.918-8.85-19.767-19.767-19.767z" fill="#7acefa"/><ellipse cx="188.193" cy="473.96" fill="#4e5660" rx="30.54" ry="30.54" transform="matrix(.707 -.707 .707 .707 -280.02 271.893)"/><ellipse cx="455.697" cy="473.96" fill="#4e5660" rx="30.54" ry="30.54" transform="matrix(.579 -.815 .815 .579 -194.628 570.787)"/><path d="m194.452 203.868h-157.607c-7.243 0-12.535-6.84-10.717-13.851l2.957-11.401c1.994-7.689 8.933-13.058 16.876-13.058h148.492v38.31z" fill="#4e5660"/><path d="m175.386 200.053v-137.001c0-30.681 24.871-55.552 55.552-55.552h182.014c30.681 0 55.552 24.871 55.552 55.552v137.002c0 30.68-24.871 55.552-55.552 55.552h-182.014c-30.68-.001-55.552-24.872-55.552-55.553z" fill="#fcf2d0"/><g fill="#a3defe"><path d="m420.016 151.816h-196.142c-8.947 0-16.2-7.253-16.2-16.2v-72.383c0-8.947 7.253-16.2 16.2-16.2h196.142c8.947 0 16.2 7.253 16.2 16.2v72.383c0 8.947-7.253 16.2-16.2 16.2z"/><ellipse cx="408.791" cy="199.892" rx="20.179" ry="20.179" transform="matrix(.707 -.707 .707 .707 -21.613 347.606)"/><path d="m445.954 450.6h-248.017c-6.981 0-12.641-5.659-12.641-12.641v-19.004c0-6.981 5.659-12.641 12.641-12.641h248.017c6.981 0 12.641 5.659 12.641 12.641v19.004c-.001 6.982-5.66 12.641-12.641 12.641z"/></g><path d="m297.095 406.315h-99.159c-6.981 0-12.641 5.659-12.641 12.641v19.004c0 6.981 5.659 12.641 12.641 12.641h110.671c-9.464-11.979-14.318-31.547-11.512-44.286z" fill="#7acefa"/><path d="m80.783 126.614c20.402 0 46.997-6.558 46.997-33.882s-23.316-74.685-46.997-74.685-46.997 47.361-46.997 74.685 26.595 33.882 46.997 33.882z" fill="#a3defe"/><ellipse cx="80.783" cy="101.657" fill="#4e5660" rx="47.898" ry="29.327"/><g><g fill="#fff"><ellipse cx="242.388" cy="118.366" rx="29.355" ry="23.377"/><ellipse cx="401.502" cy="118.366" rx="29.355" ry="23.377"/></g></g><path d="m259.497 76.362c-4.142 0-7.5 3.357-7.5 7.5v12c0 4.143 3.358 7.5 7.5 7.5s7.5-3.357 7.5-7.5v-12c0-4.142-3.358-7.5-7.5-7.5zm121.615 123.531c0 15.262 12.417 27.679 27.679 27.679s27.679-12.417 27.679-27.679-12.417-27.679-27.679-27.679-27.679 12.417-27.679 27.679zm40.359 0c0 6.991-5.688 12.679-12.679 12.679s-12.679-5.688-12.679-12.679 5.688-12.679 12.679-12.679 12.679 5.687 12.679 12.679zm-112.612-7.5c-4.142 0-7.5 3.357-7.5 7.5s3.358 7.5 7.5 7.5h31.939c4.142 0 7.5-3.357 7.5-7.5s-3.358-7.5-7.5-7.5zm-74.935 0c-4.142 0-7.5 3.357-7.5 7.5s3.358 7.5 7.5 7.5h31.939c4.142 0 7.5-3.357 7.5-7.5s-3.358-7.5-7.5-7.5zm109.413-102.54c-3.122-2.723-7.86-2.397-10.582.726-2.73 3.132-6.67 4.928-10.81 4.928-4.141 0-8.081-1.796-10.811-4.928-2.721-3.122-7.459-3.447-10.581-.727-3.123 2.722-3.448 7.46-.726 10.582 5.579 6.401 13.641 10.072 22.118 10.072s16.538-3.671 22.118-10.072c2.722-3.122 2.397-7.86-.726-10.581zm122.757 347.516v-18.413c0-6.807-3.399-13.103-9.093-16.842-3.462-2.274-8.112-1.311-10.386 2.151-2.274 3.463-1.31 8.112 2.152 10.386 1.458.958 2.328 2.566 2.328 4.305v19.004c0 2.835-2.306 5.141-5.141 5.141h-248.017c-2.835 0-5.141-2.306-5.141-5.141v-19.004c0-2.835 2.306-5.141 5.141-5.141h219.695c4.142 0 7.5-3.357 7.5-7.5 0-4.142-3.358-7.5-7.5-7.5h-46.407v-135.71h41.727c34.767 0 63.052-28.285 63.052-63.052v-137.001c0-34.767-28.285-63.052-63.052-63.052h-182.014c-23.428 0-44.794 12.873-55.761 33.596-1.938 3.66-.54 8.199 3.121 10.137 3.661 1.937 8.199.541 10.137-3.121 8.361-15.799 24.647-25.612 42.503-25.612h182.014c26.496 0 48.052 21.556 48.052 48.052v137.002c0 26.496-21.556 48.052-48.052 48.052h-182.014c-26.496 0-48.052-21.556-48.052-48.052v-128.375c0-4.143-3.358-7.5-7.5-7.5s-7.5 3.357-7.5 7.5v86.38h-59.836v-22.778c22.596-6.318 28.131-20.893 28.131-33.623 0-2.375-.336-4.688-.953-6.927 1.373-29.965-24.562-84.183-54.445-84.183-29.888 0-55.821 54.244-54.445 84.184-.617 2.239-.953 4.551-.953 6.927 0 12.73 5.535 27.305 28.131 33.623v22.778h-7.556c-11.359 0-21.284 7.68-24.136 18.676l-2.956 11.4c-3.05 11.76 5.821 23.233 17.977 23.233h16.671v67.28c0 47.862 38.928 86.961 86.962 86.961h60.225c29.385 0 56.017-14.739 71.962-38.19v71.396h-74.728c-11.105 0-20.141 9.035-20.141 20.141v18.413c-16.027 4.533-27.642 19.252-27.642 36.591 0 20.975 17.064 38.04 38.04 38.04 27.665 0 46.113-28.769 34.575-53.899h198.354c-11.545 25.142 6.921 53.898 34.574 53.898 20.975 0 38.04-17.065 38.04-38.04-.001-17.339-11.616-32.058-27.643-36.591zm-178.429-174.264h68.56v135.71h-68.56zm-118.742-51.737c5.349 29.383 31.112 51.737 62.015 51.737h2.193v15.543c0 17.873-14.549 32.428-32.428 32.428h-60.225c-17.872 0-32.428-14.547-32.428-32.428v-67.28zm-114.02-162.481c8.294-14.396 18.21-23.34 25.88-23.34 13.512 0 29.807 25.03 36.451 48.177-20.634-11.857-52.188-11.88-72.864-.022 2.377-8.278 6.014-16.971 10.533-24.815zm-14.518 52.77c0-2.222.623-3.581.764-4.116 3.934-10.617 22.64-17.711 39.634-17.711 16.995 0 35.704 7.095 39.636 17.715.139.528.762 1.895.762 4.113 0 4.41-.005 16.179-22.028 20.341-10.614 1.998-26.211 1.983-36.739 0-22.024-4.163-22.029-15.932-22.029-20.342zm52.665 36.283v20.118h-24.534v-20.118c7.759.725 16.762.727 24.534 0zm-56.205 58.428c-2.336 0-4.046-2.199-3.457-4.469l2.956-11.4c1.136-4.381 5.091-7.44 9.617-7.44h121.926v23.31h-131.042zm56.205 15v30.377h-24.534v-30.377zm-24.534 67.28v-21.903h24.534v21.903c0 10.374 3.358 19.974 9.03 27.79l-17.483 17.483c-10.046-12.374-16.081-28.129-16.081-45.273zm94.575 71.961h-22.613c-17.144 0-32.899-6.035-45.274-16.08l17.483-17.483c7.816 5.673 17.416 9.03 27.791 9.03h22.613zm37.612 0h-22.612v-24.533h22.612c10.374 0 19.975-3.358 27.791-9.03l17.483 17.483c-12.375 10.045-28.13 16.08-45.274 16.08zm55.881-26.687-17.483-17.483c5.673-7.816 9.03-17.416 9.03-27.79v-15.543h24.534v15.543c0 17.143-6.035 32.898-16.081 45.273zm-68.391 173.078c-12.704 0-23.04-10.336-23.04-23.04 0-10.925 7.615-20.12 17.925-22.45 3.686 4.038 8.973 6.59 14.857 6.59h6.96c13.838 14.558 3.553 38.9-16.702 38.9zm267.504 0c-12.704 0-23.039-10.336-23.039-23.04 0-5.943 2.283-11.595 6.336-15.859h6.96c5.885 0 11.172-2.553 14.857-6.59 10.311 2.33 17.925 11.525 17.925 22.45 0 12.703-10.335 23.039-23.039 23.039zm-71.303-420.638c-4.142 0-7.5 3.357-7.5 7.5v12c0 4.143 3.358 7.5 7.5 7.5s7.5-3.357 7.5-7.5v-12c0-4.142-3.358-7.5-7.5-7.5zm59.322 59.254v-72.383c0-13.068-10.632-23.7-23.7-23.7h-196.142c-13.068 0-23.7 10.632-23.7 23.7v72.383c0 13.067 10.632 23.699 23.7 23.699h196.142c13.068 0 23.7-10.631 23.7-23.699zm-15 0c0 4.797-3.903 8.699-8.7 8.699h-196.142c-4.797 0-8.7-3.902-8.7-8.699v-72.383c0-4.797 3.903-8.7 8.7-8.7h196.142c4.797 0 8.7 3.903 8.7 8.7z"/></g></svg>