<svg id="Layer_1" enable-background="new 0 0 480 480" height="512" viewBox="0 0 480 480" width="512" xmlns="http://www.w3.org/2000/svg"><path d="m406 240c0 113.539-112.265 194.5-220.52 156.83-107.841-37.467-146.785-171.062-75.11-260.53 30.42-37.98 77.18-62.3 129.63-62.3 91.74 0 166 74.375 166 166z" fill="#fe4f60"/><circle cx="300" cy="263" fill="#e84857" r="57"/><circle cx="163" cy="260" fill="#e84857" r="31"/><g fill="#ff6d7a"><circle cx="450.5" cy="178.5" r="21.5"/><path d="m472 414c0 16.02-12.98 29-29 29-24.938 0-37.984-29.337-22.01-47.87 17.337-20.281 51.01-8.124 51.01 18.87z"/><path d="m355 8c16.02 0 29 12.98 29 29 0 22.37-24.205 36.094-43.29 25.24v-.01c-8.79-4.97-14.71-14.41-14.71-25.23 0-16.02 12.98-29 29-29z"/><circle cx="167.5" cy="450.5" r="21.5"/><circle cx="37" cy="371" r="29"/><path d="m229.608 74.325c28.738-1.781 36.65 38.877 9.249 47.723-62.838 20.286-108.089 76.345-114.171 142.741-2.622 28.624-44.056 29.663-48.589 1.28-15.485-96.967 56.051-185.704 153.511-191.744z"/><path d="m67.64 102.11c-16.932 21.213-51.64 9.396-51.64-18.11 0-16.02 12.98-29 29-29 24.487 0 37.683 28.41 22.64 47.11z"/></g><path d="m229 156c-8.822 0-16-7.177-16-16s7.178-16 16-16 16 7.177 16 16-7.178 16-16 16zm0-16.011v.011c0-.008 0-.011 0-.011z" fill="#e84857"/><path d="m152.006 108.751c48.057-32.287 108.952-35.016 158.819-10.002l-12.785 22.569c-2.178 3.844-.827 8.726 3.017 10.904 3.847 2.179 8.728.825 10.904-3.018.522-.922 31.894-56.301 32.194-56.829 23.755 7.298 47.845-10.572 47.845-35.375 0-20.402-16.598-37-37-37-33.798 0-49.847 41.837-24.757 64.471l-11.524 20.343c-55.129-27.978-122.527-25.025-175.636 10.655-3.667 2.464-4.643 7.435-2.179 11.102 2.464 3.668 7.435 4.643 11.102 2.18zm202.994-92.751c11.58 0 21 9.421 21 21s-9.42 21-21 21-21-9.421-21-21 9.42-21 21-21zm-210.482 369.484c1.354.891 2.879 1.317 4.388 1.317 7.905 0 11.031-10.326 4.403-14.685-75.386-49.572-93.987-151.93-41.533-224.45l46.351 37.081c1.475 1.18 3.24 1.753 4.993 1.753 7.511 0 10.915-9.518 5.002-14.247l-89.924-71.939c12.098-24.519-5.883-53.314-33.198-53.314-20.402 0-37 16.598-37 37 0 31.021 36.093 48.246 60.193 28.799l31.08 24.864c-40.417 55.589-44.43 130.249-9.701 189.889l-26.576 17.15c-23.314-23.05-62.996-6.442-62.996 26.298 0 20.402 16.598 37 37 37 25.662 0 43.68-25.701 34.69-49.865l26.564-17.143c12.333 17.289 27.917 32.428 46.264 44.492zm-120.518-301.484c0-11.579 9.42-21 21-21s21 9.421 21 21-9.42 21-21 21-21-9.421-21-21zm13 308c-11.58 0-21-9.421-21-21s9.42-21 21-21 21 9.421 21 21-9.42 21-21 21zm406-15c-20.402 0-37 16.598-37 37s16.598 37 37 37 37-16.598 37-37-16.598-37-37-37zm0 58c-11.58 0-21-9.421-21-21s9.42-21 21-21 21 9.421 21 21-9.42 21-21 21zm-41.57-67.168-24.309-20.837c33.514-42.854 44.13-97.286 32.101-147.59l16.585-4.795c5.272 8.055 14.369 13.39 24.693 13.39 16.266 0 29.5-13.234 29.5-29.5s-13.234-29.5-29.5-29.5c-16.445 0-29.951 13.581-29.479 30.339l-16.234 4.693c-7.702-22.702-20.094-43.739-36.655-61.755-2.991-3.253-8.052-3.466-11.304-.476-3.253 2.99-3.466 8.051-.476 11.304 26.857 29.218 41.648 67.18 41.648 106.895 0 104.678-100.832 181.262-202.267 151.709l12.573-36.169c1.451-4.173-.756-8.732-4.93-10.183-4.175-1.451-8.733.756-10.184 4.93-2.639 7.59-21.818 62.764-24.591 70.742-16.805-.623-30.601 12.874-30.601 29.471 0 16.266 13.234 29.5 29.5 29.5s29.5-13.234 29.5-29.5c0-10.231-5.237-19.259-13.169-24.552l6.642-19.106c61.761 18.313 130.126 1.286 176.223-47.709l24.321 20.847c3.356 2.877 8.406 2.486 11.281-.868s2.487-8.405-.868-11.28zm49.07-202.832c7.444 0 13.5 6.056 13.5 13.5s-6.056 13.5-13.5 13.5-13.5-6.056-13.5-13.5 6.056-13.5 13.5-13.5zm-283 299c-7.444 0-13.5-6.056-13.5-13.5s6.056-13.5 13.5-13.5 13.5 6.056 13.5 13.5-6.056 13.5-13.5 13.5zm132.5-136c35.841 0 65-29.159 65-65s-29.159-65-65-65-65 29.159-65 65 29.159 65 65 65zm0-114c27.019 0 49 21.981 49 49s-21.981 49-49 49-49-21.981-49-49 21.981-49 49-49zm-176 46c0 21.505 17.495 39 39 39s39-17.495 39-39-17.495-39-39-39-39 17.495-39 39zm62 0c0 12.682-10.318 23-23 23s-23-10.318-23-23 10.318-23 23-23 23 10.318 23 23zm59-120c0 8.823-7.178 16-16 16s-16-7.177-16-16 7.178-16 16-16 16 7.177 16 16z"/></svg>