<svg id="Layer_3" enable-background="new 0 0 64 64" height="512" viewBox="0 0 64 64" width="512" xmlns="http://www.w3.org/2000/svg"><g><path d="m47 38-15 24h30z" fill="#b52f28"/><path d="m51 44.4-4-6.4-13.75 22h15.75c1.105 0 2-.895 2-2z" fill="#d23f34"/><path d="m33.647 13.709 5.94-5.338c.266-.239.611-.371.968-.371.798 0 1.445.647 1.445 1.445 0 .357-.132.701-.371.967l-5.029 5.588" fill="#ba4753"/><path d="m16.402 13.747-5.99-5.376c-.265-.239-.61-.371-.967-.371-.798 0-1.445.647-1.445 1.445 0 .357.132.701.371.967l5.029 5.588" fill="#8d353e"/><path d="m33.016 35.698 6.572 5.931c.265.239.61.371.967.371.798 0 1.445-.647 1.445-1.445 0-.357-.132-.701-.371-.967l-5.029-5.588" fill="#8d353e"/><path d="m17.395 35.342-6.983 6.287c-.265.239-.61.371-.967.371-.798 0-1.445-.647-1.445-1.445 0-.357.132-.701.371-.967l5.029-5.588" fill="#ba4753"/><circle cx="25" cy="25" fill="#e1656e" r="15"/><circle cx="23" cy="21" fill="#8d353e" r="10"/><g fill="#ba4753"><path d="m22 14 1-12h4l1 12"/><path d="m22 36 1 12h4l1-12"/><path d="m14 28-12-1v-4l12-1"/><path d="m36 28 12-1v-4l-12-1"/><circle cx="18" cy="18" r="2"/><circle cx="30" cy="22" r="4"/></g><circle cx="22" cy="31" fill="#f29b99" r="3"/><g><path d="m46 57h2v2h-2z" fill="#fff"/></g><g><path d="m46 43h2v12h-2z" fill="#fff"/></g><circle cx="19" cy="59" fill="#ba4753" r="3"/><circle cx="7" cy="52" fill="#f29b99" r="5"/><circle cx="55" cy="21" fill="#f29b99" r="3"/><circle cx="57" cy="7" fill="#ba4753" r="5"/><path d="m1.917 27.996 7.505.625c.47 2.033 1.318 3.91 2.471 5.558l-4.266 4.739c-.404.451-.627 1.032-.627 1.637 0 1.348 1.097 2.445 2.445 2.445.606 0 1.188-.224 1.636-.628l4.739-4.265c1.648 1.152 3.524 2.001 5.558 2.471l.625 7.505c.044.519.477.917.997.917h4c.52 0 .953-.398.997-.917l.625-7.505c2.033-.471 3.91-1.319 5.558-2.471l4.738 4.264c.449.405 1.03.629 1.637.629 1.348 0 2.445-1.097 2.445-2.445 0-.604-.223-1.186-.628-1.636l-4.265-4.739c1.152-1.648 2-3.525 2.471-5.558l7.505-.625c.519-.044.917-.476.917-.997v-4c0-.521-.398-.953-.917-.996l-7.505-.625c-.47-2.033-1.318-3.91-2.471-5.558l4.266-4.739c.404-.451.627-1.032.627-1.637 0-1.348-1.097-2.445-2.445-2.445-.606 0-1.188.224-1.636.628l-4.739 4.265c-1.648-1.152-3.524-2.001-5.558-2.471l-.625-7.505c-.044-.519-.477-.917-.997-.917h-4c-.52 0-.953.398-.997.917l-.625 7.505c-2.033.471-3.91 1.319-5.558 2.471l-4.738-4.264c-.449-.405-1.03-.629-1.637-.629-1.348 0-2.445 1.097-2.445 2.445 0 .604.223 1.186.628 1.636l4.265 4.739c-1.152 1.648-2 3.525-2.471 5.558l-7.505.625c-.519.044-.917.476-.917.997v4c0 .521.398.953.917.996zm7.825 12.891c-.261.237-.742.023-.742-.332 0-.11.041-.216.114-.298l4.043-4.493c.342.377.702.736 1.078 1.078zm31.143-.63c.074.082.115.187.115.298 0 .355-.479.57-.743.331l-4.492-4.043c.377-.342.736-.702 1.078-1.078zm-.627-31.144c.261-.236.742-.023.742.332 0 .11-.041.216-.114.298l-4.043 4.493c-.342-.377-.702-.736-1.078-1.078zm-31.143.63c-.074-.082-.115-.187-.115-.298 0-.355.478-.57.743-.331l4.492 4.043c-.377.342-.736.702-1.078 1.078zm-6.115 14.177 11.083-.924-.166-1.992-2.396.2c1.316-4.702 4.98-8.367 9.682-9.682l-.2 2.396 1.993.166.924-11.084h2.16l.923 11.083 1.993-.166-.2-2.396c4.702 1.316 8.366 4.98 9.682 9.682l-2.396-.2-.166 1.992 11.084.925v2.16l-11.083.924.166 1.992 2.396-.2c-1.316 4.702-4.98 8.367-9.682 9.682l.2-2.396-1.993-.166-.924 11.084h-2.16l-.923-11.083-1.993.166.2 2.396c-4.702-1.316-8.366-4.98-9.682-9.682l2.396.2.166-1.992-11.084-.925z"/><path d="m18 21c1.654 0 3-1.346 3-3s-1.346-3-3-3-3 1.346-3 3 1.346 3 3 3zm0-4c.551 0 1 .448 1 1s-.449 1-1 1-1-.448-1-1 .449-1 1-1z"/><path d="m30 27c2.757 0 5-2.243 5-5s-2.243-5-5-5-5 2.243-5 5 2.243 5 5 5zm0-8c1.654 0 3 1.346 3 3s-1.346 3-3 3-3-1.346-3-3 1.346-3 3-3z"/><path d="m18 31c0 2.206 1.794 4 4 4s4-1.794 4-4-1.794-4-4-4-4 1.794-4 4zm4-2c1.103 0 2 .897 2 2s-.897 2-2 2-2-.897-2-2 .897-2 2-2z"/><path d="m46.152 37.47-15 24c-.192.309-.203.697-.026 1.015.176.318.51.515.874.515h30c.364 0 .698-.197.875-.516.176-.317.166-.706-.026-1.015l-15-24c-.367-.583-1.331-.583-1.697.001zm-12.348 23.53 13.196-21.113 13.196 21.113z"/><path d="m46 57h2v2h-2z"/><path d="m46 43h2v12h-2z"/><path d="m23 59c0-2.206-1.794-4-4-4s-4 1.794-4 4 1.794 4 4 4 4-1.794 4-4zm-6 0c0-1.103.897-2 2-2s2 .897 2 2-.897 2-2 2-2-.897-2-2z"/><path d="m7 58c3.309 0 6-2.691 6-6s-2.691-6-6-6-6 2.691-6 6 2.691 6 6 6zm0-10c2.206 0 4 1.794 4 4s-1.794 4-4 4-4-1.794-4-4 1.794-4 4-4z"/><path d="m55 17c-2.206 0-4 1.794-4 4s1.794 4 4 4 4-1.794 4-4-1.794-4-4-4zm0 6c-1.103 0-2-.897-2-2s.897-2 2-2 2 .897 2 2-.897 2-2 2z"/><path d="m57 1c-3.309 0-6 2.691-6 6s2.691 6 6 6 6-2.691 6-6-2.691-6-6-6zm0 10c-2.206 0-4-1.794-4-4s1.794-4 4-4 4 1.794 4 4-1.794 4-4 4z"/></g></svg>