<svg height="512" viewBox="0 0 60 57" width="512" xmlns="http://www.w3.org/2000/svg"><g id="Page-1" fill="none" fill-rule="evenodd"><g id="058---Washing-Hands" fill-rule="nonzero" transform="translate(-1)"><g id="Icons" transform="translate(1 1)"><path id="Shape" d="m46 37c0 1.6568542-1.3431458 3-3 3h-3c1.6568542 0 3 1.3431458 3 3s-1.3431458 3-3 3h-4c1.6568542-.1325483 3.1074517 1.1031458 3.24 2.76s-1.1031458 3.1074517-2.76 3.24c-.1596551.0148582-.3203449.0148582-.48 0h-23c-4.16513098.0029939-8.03391651-2.1540316-10.22105787-5.698709s-2.37978169-7.9699627-.50894213-11.691291l1-1.55 11.9-18.06c.87404-1.4515375 2.6034912-2.1490284 4.24-1.71.2598279.0599214.5115992.150559.75.27 1.664262.81132 2.5071167 2.6993145 2 4.48l-2.87 9.96h20.71c1.6568542 0 3 1.3431458 3 3s-1.3431458 3-3 3h3c1.6568542 0 3 1.3431458 3 3z" fill="#ffe0b2"/><path id="Shape" d="m56 44.78c-.7953814-.0007002-1.5579306-.3172301-2.12-.88l2.12 2.1c.8568812.8579473 1.1130328 2.1473683.6491479 3.2676941-.4638849 1.1203257-1.5565813 1.8512394-2.7691479 1.8523059-.7953814-.0007002-1.5579306-.3172301-2.12-.88l-2.13-2.12c1.1736051 1.1708437 1.1758437 3.0713949.005 4.245s-3.0713949 1.1758437-4.245.005l-2.83-2.83c.8026127.7478823 1.1329967 1.8742222.8615422 2.9371556-.2714546 1.0629335-1.1014531 1.892932-2.1643866 2.1643866-1.0629334.2714545-2.1892733-.0589295-2.9371556-.8615422l-1.84-1.78c1.6568542-.1325483 2.8925483-1.5831458 2.76-3.24s-1.5831458-2.8925483-3.24-2.76h4c1.6568542 0 3-1.3431458 3-3s-1.3431458-3-3-3h3c1.6568542 0 3-1.3431458 3-3s-1.3431458-3-3-3h-3c1.6568542 0 3-1.3431458 3-3s-1.3431458-3-3-3h-1.1c.0689019-.328813.102426-.6640542.1-1-.0031295-2.5039497-1.8579584-4.6194803-4.34-4.95 1.5049068-1.6556935 2.3391392-3.8125763 2.34-6.05l12.74-3.11c1.9057842-.5557762 3.9203443.4367432 4.6409916 2.2864913.7206473 1.8497482-.0915121 3.9435352-1.8709916 4.8235087l-9 5 14.61 14.66c.8568812.8579473 1.1130328 2.1473683.6491479 3.2676941-.4638849 1.1203257-1.5565813 1.8512394-2.7691479 1.8523059z" fill="#ffe0b2"/><path id="Shape" d="m58.12 39.66-14.64-14.66 9-5c1.6801126-.9298913 2.4119071-2.9602079 1.7113955-4.7481564-.7005116-1.7879484-2.616761-2.7807712-4.4813955-2.3218436l-.69.17c1.3858526.5325569 2.3361291 1.8216395 2.4348869 3.3030075.0987579 1.4813681-.6719919 2.8851857-1.9748869 3.5969925l-9 5 14.64 14.66c1.1698135 1.1712702 1.1698135 3.0687298 0 4.24-.1858985.1823258-.3942378.3402604-.62.47 1.1741151.6799574 2.6584492.48724 3.62-.47 1.1698135-1.1712702 1.1698135-3.0687298 0-4.24z" fill="#dfc49c"/><path id="Shape" d="m39 27c.002426.3359458-.0310981.671187-.1 1h-19.61l2.84-9.94c.5071167-1.7806855-.335738-3.66868-2-4.48-.2384008-.119441-.4901721-.2100786-.75-.27 1.2886756-4.29660784 5.5445514-6.98832588 9.9788751-6.31134911 4.4343236.67697676 7.6931758 4.51594901 7.6411249 9.00134911-.0132318 2.2201639-.8466326 4.357089-2.34 6 2.5009855.3329461 4.3620646 2.4770464 4.34 5z" fill="#02a9f4"/><circle id="Oval" cx="42.5" cy="6.5" fill="#02a9f4" r="2.5"/><circle id="Oval" cx="55" cy="4" fill="#f5f5f5" r="4"/><path id="Shape" d="m55 0c-.5147975.00104506-1.0244004.10296565-1.5.3 1.5004686.61635537 2.4801316 2.07787176 2.4801316 3.7s-.979663 3.08364463-2.4801316 3.7c.4755996.19703435.9852025.29895494 1.5.3 2.209139 0 4-1.790861 4-4s-1.790861-4-4-4z" fill="#cfd8dc"/><g fill="#f5f5f5"><circle id="Oval" cx="55" cy="27" r="2"/><path id="Shape" d="m24.47 13.47c-.4062651.0023626-.77358-.2413038-.929371-.6165185-.1557909-.3752147-.0690889-.807391.219371-1.0934815 1.7437999-1.7451734 4.378114-2.24505833 6.64-1.26.508102.2209139.7409139.811898.52 1.32s-.811898.7409139-1.32.52c-1.5088342-.6582391-3.2668605-.3248887-4.43.84-.1862606.1847442-.4376601.2888954-.7.29z"/></g></g><g id="Icons_copy" fill="#000"><path id="Shape" d="m46.12 26.24 7.88-4.37c.399695-.2132104.7667618-.4826172 1.09-.8 1.488258-1.5451724 1.7817551-3.8856766.721105-5.7504798s-3.2223243-2.8088717-5.311105-2.3195202l-11.58 2.78c-.5587182-4.5092023-4.0871966-8.0749383-8.5902818-8.68098732-4.5030852-.60604903-8.8487294 1.89994587-10.5797182 6.10098732-1.7809991-.1129782-3.4796703.7632595-4.42 2.28l-11.94 18.02-1 1.55c-.02378428.0344721-.04389391.0713398-.06.11-.89644435 1.8149806-1.35211649 3.8158266-1.33 5.84 0 7.1797017 5.82029825 13 13 13h23.1l1.51 1.52c.7507884.7499543 1.7688148 1.1708345 2.83 1.17 1.8228823-.0013597 3.4142798-1.2350012 3.87-3l.38.38c1.5867609 1.4947169 4.0632391 1.4947169 5.65 0 .4892788-.5108494.8343393-1.1423102 1-1.83 1.6099502 1.2202296 3.8671462 1.0931829 5.33-.3 1.4384895-1.4389427 1.5675975-3.7284584.3-5.32.6853539-.1641221 1.313967-.5095139 1.82-1 .7511082-.750273 1.1731466-1.768363 1.1731466-2.83s-.4220384-2.079727-1.1731466-2.83zm-17.12-17.24c3.16606.00030748 6.0340784 1.8677526 7.3151167 4.7630724 1.2810384 2.8953199.7340587 6.2737357-1.3951167 8.6169276-.2443954.271741-.32108.6551639-.2 1 .1275022.3508775.4398364.601516.81.65 1.9886103.265833 3.4726421 1.9637021 3.4700035 3.97h-17.3800035l2.47-8.66c.1276491-.4351611.1916458-.8865061.19-1.34.0103538-1.7896903-.9819873-3.4345825-2.57-4.26 1.2842385-2.8779874 4.1384857-4.73383544 7.29-4.74zm-26 32c-.00516775-1.702843.38507706-3.3836343 1.14-4.91l.95-1.55 11.91-17.97c.6293415-1.0566998 1.8763974-1.576645 3.07-1.28.1974734.0477491.3887489.1182191.57.21.9814364.4492024 1.618841 1.4208556 1.64 2.5-.0029086.2636533-.0398816.525825-.11.78l-2.84 9.94c-.0848056.2991046-.0256729.6206385.16.87.1888544.2518058.4852427.4.8.4h20.71c1.1045695 0 2 .8954305 2 2s-.8954305 2-2 2h-15c-.5522847 0-1 .4477153-1 1s.4477153 1 1 1h18c1.1045695 0 2 .8954305 2 2s-.8954305 2-2 2h-19c-.5522847 0-1 .4477153-1 1s.4477153 1 1 1h16c1.1045695 0 2 .8954305 2 2s-.8954305 2-2 2h-17c-.5522847 0-1 .4477153-1 1s.4477153 1 1 1h13c1.1045695 0 2 .8954305 2 2s-.8954305 2-2 2h-23c-6.07122915.0000025-10.9944807-4.9187734-11-10.99zm39.85 13.1c-.7800749.7754472-2.0399251.7754472-2.82 0l-.79-.78c.2119506-.140239.4095714-.3010153.59-.48.752411-.7532371 1.1734934-1.7753516 1.17-2.84.0003168-.2147522-.0197735-.4290487-.06-.64l1.91 1.91c.7754472.7800749.7754472 2.0399251 0 2.82zm7.07-1.42c-.7926944.7442237-2.0273056.7442237-2.82 0l-2.81-2.81-2-2.06c.6126108-.1980972 1.1683501-.5411462 1.62-1 .5435307-.549907.9182917-1.2439089 1.08-2l5 5c.3789232.3860149.5853313.909053.5721422 1.4498083-.0131892.5407554-.2448508 1.0531089-.6421422 1.4201917zm6.37-2.13c-.3751365.3755541-.8841815.5865733-1.415.5865733s-1.0398635-.2110192-1.415-.5865733l-2.13-2.12-6.52-6.53c.7577476-.1512132 1.4537041-.5235499 2-1.07.4574979-.4488068.8004578-1.0009722 1-1.61l6.38 6.38 2.08 2.07c.393734.3742436.6183009.8925456.6220731 1.4357495.0037723.5432039-.2135746 1.0645748-.6020731 1.4442505zm2.12-6.36c-.7764532.7557739-2.0135468.7557739-2.79 0l-8.08-8.07c-.6148089-1.1752694-1.7722169-1.9693487-3.09-2.12.7132845-1.2354246.7146326-2.757223.0035379-3.9939093-.7110946-1.2366863-2.0269954-2.0010666-3.4535379-2.0060907-.00255-2.3992412-1.4341455-4.5662993-3.64-5.51.9065754-1.3974905 1.4496831-2.9993145 1.58-4.66l12-2.94c1.2313347-.2951917 2.5093454.260439 3.1333171 1.3622478s.4431525 2.4835979-.4433171 3.3877522c-.1948712.1875855-.4133817.3489471-.65.48l-9 5c-.271109.1523502-.4559089.4221581-.5.73-.0457305.3116176.0580185.6265699.28.85l14.65 14.67c.7754472.7800749.7754472 2.0399251 0 2.82z"/><path id="Shape" d="m40 7.5c0 1.93299662 1.5670034 3.5 3.5 3.5s3.5-1.56700338 3.5-3.5-1.5670034-3.5-3.5-3.5-3.5 1.56700338-3.5 3.5zm5 0c0 .82842712-.6715729 1.5-1.5 1.5s-1.5-.67157288-1.5-1.5.6715729-1.5 1.5-1.5 1.5.67157288 1.5 1.5z"/><path id="Shape" d="m56 0c-2.7614237 0-5 2.23857625-5 5s2.2385763 5 5 5 5-2.23857625 5-5c0-1.32608245-.5267842-2.59785201-1.4644661-3.53553391-.9376819-.93768189-2.2094515-1.46446609-3.5355339-1.46446609zm0 8c-1.6568542 0-3-1.34314575-3-3s1.3431458-3 3-3 3 1.34314575 3 3c0 .79564947-.3160705 1.55871121-.8786797 2.12132034-.5626091.56260914-1.3256708.87867966-2.1213203.87867966z"/><path id="Shape" d="m53 28c0 1.6568542 1.3431458 3 3 3s3-1.3431458 3-3-1.3431458-3-3-3-3 1.3431458-3 3zm3-1c.5522847 0 1 .4477153 1 1s-.4477153 1-1 1-1-.4477153-1-1 .4477153-1 1-1z"/></g></g></g></svg>