<svg xmlns="http://www.w3.org/2000/svg" id="Filled_Outline" width="512" height="512" data-name="Filled Outline" viewBox="0 0 64 64"><rect width="58" height="58" x="3" y="3" style="fill:#e6e6e6"/><path d="M3,9H61V3H3Z" style="fill:#b3b3b3"/><path d="M6,7a.991.991,0,0,1-.71-.29,1.169,1.169,0,0,1-.21-.33A.838.838,0,0,1,5,6a1,1,0,0,1,.08-.38,1.155,1.155,0,0,1,.21-.33,1.047,1.047,0,0,1,1.42,0,1.155,1.155,0,0,1,.21.33.943.943,0,0,1,0,.76,1.169,1.169,0,0,1-.21.33,1.169,1.169,0,0,1-.33.21A1,1,0,0,1,6,7Z" style="fill:#ff6536"/><path d="M9,7A.99.99,0,0,1,8,6a.96.96,0,0,1,.62-.92,1,1,0,0,1,1.09.21l.12.149a.824.824,0,0,1,.09.181.6.6,0,0,1,.059.18A1.348,1.348,0,0,1,10,6a.994.994,0,0,1-.29.71,1.169,1.169,0,0,1-.33.21A1,1,0,0,1,9,7Z" style="fill:#fdb62f"/><path d="M12,7a.991.991,0,0,1-.71-.29,1.169,1.169,0,0,1-.21-.33A1,1,0,0,1,11,6a1,1,0,0,1,1.71-.71A1.029,1.029,0,0,1,13,6a1,1,0,0,1-.08.38,1.169,1.169,0,0,1-.21.33A.994.994,0,0,1,12,7Z" style="fill:#02998a"/><rect width="8" height="8" x="7" y="41" style="fill:#a7d6dd"/><rect width="8" height="8" x="19" y="41" style="fill:#a7d6dd"/><rect width="8" height="8" x="31" y="41" style="fill:#a7d6dd"/><rect width="32" height="10" x="7" y="13" style="fill:#a7d6dd"/><path d="M61,2H3A1,1,0,0,0,2,3V61a1,1,0,0,0,1,1H61a1,1,0,0,0,1-1V3A1,1,0,0,0,61,2ZM4,4H60V8H4ZM4,60V10H60V60Z" style="fill:#231f20"/><path d="M6.71,5.29a1.047,1.047,0,0,0-1.42,0,1.155,1.155,0,0,0-.21.33A1,1,0,0,0,5,6a.838.838,0,0,0,.08.38,1.169,1.169,0,0,0,.21.33.99.99,0,0,0,1.09.21,1.169,1.169,0,0,0,.33-.21,1.169,1.169,0,0,0,.21-.33.943.943,0,0,0,0-.76A1.155,1.155,0,0,0,6.71,5.29Z" style="fill:#231f20"/><path d="M9.92,5.62a.824.824,0,0,0-.09-.181L9.71,5.29a1,1,0,0,0-1.09-.21A.96.96,0,0,0,8,6a.99.99,0,0,0,1.38.92,1.169,1.169,0,0,0,.33-.21A.994.994,0,0,0,10,6a1.348,1.348,0,0,0-.021-.2A.6.6,0,0,0,9.92,5.62Z" style="fill:#231f20"/><path d="M11.29,5.29A1.045,1.045,0,0,0,11,6a1,1,0,0,0,.08.38,1.169,1.169,0,0,0,.21.33,1.014,1.014,0,0,0,1.42,0,1.169,1.169,0,0,0,.21-.33A1,1,0,0,0,13,6a1.029,1.029,0,0,0-.29-.71A1.047,1.047,0,0,0,11.29,5.29Z" style="fill:#231f20"/><rect width="10" height="2" x="44" y="12" style="fill:#231f20"/><rect width="14" height="2" x="44" y="16" style="fill:#231f20"/><rect width="14" height="2" x="44" y="20" style="fill:#231f20"/><rect width="10" height="2" x="44" y="26" style="fill:#231f20"/><rect width="14" height="2" x="44" y="30" style="fill:#231f20"/><rect width="14" height="2" x="44" y="34" style="fill:#231f20"/><rect width="14" height="2" x="44" y="38" style="fill:#231f20"/><rect width="10" height="2" x="44" y="44" style="fill:#231f20"/><rect width="14" height="2" x="44" y="48" style="fill:#231f20"/><rect width="14" height="2" x="44" y="52" style="fill:#231f20"/><rect width="14" height="2" x="44" y="56" style="fill:#231f20"/><path d="M39,12H7a1,1,0,0,0-1,1V23a1,1,0,0,0,1,1H39a1,1,0,0,0,1-1V13A1,1,0,0,0,39,12ZM38,22H8V14H38Z" style="fill:#231f20"/><rect width="16" height="2" x="6" y="26" style="fill:#231f20"/><rect width="34" height="2" x="6" y="30" style="fill:#231f20"/><rect width="26" height="2" x="6" y="34" style="fill:#231f20"/><path d="M15,40H7a1,1,0,0,0-1,1v8a1,1,0,0,0,1,1h8a1,1,0,0,0,1-1V41A1,1,0,0,0,15,40Zm-1,8H8V42h6Z" style="fill:#231f20"/><rect width="10" height="2" x="6" y="52" style="fill:#231f20"/><path d="M27,40H19a1,1,0,0,0-1,1v8a1,1,0,0,0,1,1h8a1,1,0,0,0,1-1V41A1,1,0,0,0,27,40Zm-1,8H20V42h6Z" style="fill:#231f20"/><path d="M39,40H31a1,1,0,0,0-1,1v8a1,1,0,0,0,1,1h8a1,1,0,0,0,1-1V41A1,1,0,0,0,39,40Zm-1,8H32V42h6Z" style="fill:#231f20"/><rect width="10" height="2" x="18" y="52" style="fill:#231f20"/><rect width="10" height="2" x="30" y="52" style="fill:#231f20"/><rect width="10" height="2" x="6" y="56" style="fill:#231f20"/><rect width="10" height="2" x="18" y="56" style="fill:#231f20"/><rect width="10" height="2" x="30" y="56" style="fill:#231f20"/></svg>