<svg id="Capa_1" enable-background="new 0 0 512 512" height="512" viewBox="0 0 512 512" width="512" xmlns="http://www.w3.org/2000/svg"><g><g><path d="m250.647 97.739-168.535 163.372v243.389h173.888 173.888v-243.389l-168.535-163.372c-2.983-2.892-7.723-2.892-10.706 0z" fill="#e4ebef"/></g><g><path d="m429.884 261.108v243.39h-20.222v-236.11l-167.529-162.391 8.514-8.254c2.983-2.892 7.724-2.892 10.707-.001z" fill="#d0d9dd"/></g><g><path d="m250.747 9.558-220.009 205.724c-22.751 21.274-7.697 59.414 23.451 59.414 8.921 0 17.492-3.472 23.898-9.682l172.56-167.275c2.983-2.892 7.724-2.892 10.707 0l172.56 167.275c6.406 6.209 14.977 9.682 23.898 9.682 31.148 0 46.202-38.14 23.451-59.414l-220.01-205.724c-2.956-2.765-7.55-2.765-10.506 0z" fill="#5de1c4"/></g><g><path d="m492.213 240.089c0 14.596-9.335 28.743-24.34 33.187 4.533-6.047 7.064-13.52 7.064-21.102 0-8.787-3.387-17.734-10.959-24.808l-220.013-205.725c-1.156-1.076-2.57-1.744-4.035-1.973l10.82-10.113c2.949-2.76 7.552-2.76 10.501 0l220.013 205.726c7.562 7.074 10.949 16.021 10.949 24.808z" fill="#0ed2b3"/></g><g><path d="m347.535 497.001h-258.562v-121.082c0-4.142-3.357-7.5-7.5-7.5-4.142 0-7.5 3.357-7.5 7.5v128.581c0 4.142 3.357 7.5 7.5 7.5h266.062c4.142 0 7.5-3.357 7.5-7.5s-3.357-7.499-7.5-7.499z"/><path d="m486.385 209.803-220.009-205.722c-5.818-5.441-14.934-5.44-20.75-.001l-220.011 205.723c-12.824 11.992-16.786 29.587-10.34 45.917s21.357 26.475 38.914 26.475c7.255 0 14.245-1.856 20.424-5.322v64.578c0 4.142 3.357 7.5 7.5 7.5 4.142 0 7.5-3.357 7.5-7.5v-77.166l166.254-161.161c.076-.072.191-.073.268-.001l12.816 12.424 153.438 148.739v232.715h-40.845c-4.142 0-7.5 3.357-7.5 7.5s3.357 7.5 7.5 7.5h48.345c4.142 0 7.5-3.357 7.5-7.5v-227.627c6.179 3.466 13.169 5.322 20.424 5.322 17.557 0 32.468-10.145 38.914-26.475 6.444-16.331 2.482-33.926-10.342-45.918zm-3.612 40.41c-3.241 8.21-11.5 16.983-24.962 16.983-7.011 0-13.644-2.688-18.678-7.567 0 0-172.919-167.59-173.098-167.748-1.734-1.532-3.712-2.621-5.8-3.231-5.069-1.482-10.733-.247-14.808 3.704l-172.561 167.275c-5.033 4.88-11.666 7.567-18.677 7.567-13.462 0-21.721-8.773-24.962-16.983-3.24-8.21-3.2-20.26 6.633-29.454l220.01-205.723c.001 0 .001-.001.001-.001.072-.068.187-.069.261.001l220.008 205.724c9.833 9.194 9.873 21.243 6.633 29.453z"/><path d="m307.729 397.623c-2.706-.134-5.179 1.54-6.016 4.116-.019.058-8.102 28.407-8.102 28.407s-8.381-28.405-8.401-28.465c-.864-2.566-3.361-4.236-6.057-4.052-2.702.181-4.949 2.165-5.475 4.886l-7.552 41.845c-.49 2.717 1.315 5.317 4.033 5.808 2.708.486 5.317-1.314 5.808-4.033l4.53-25.104 7.466 25.305c.018.06.036.118.056.177.819 2.438 3.091 4.07 5.66 4.07.01 0 .021-.001.031-.001 2.581-.013 4.851-1.672 5.648-4.127.019-.058.036-.115.053-.173l7.208-25.286 4.814 25.189c.519 2.713 3.135 4.486 5.849 3.973 2.713-.519 4.491-3.138 3.973-5.849l-8.011-41.917c-.544-2.655-2.811-4.616-5.515-4.769z"/><path d="m186.835 450.584c2.762 0 5-2.238 5-5v-42.971c0-2.762-2.238-5-5-5-2.761 0-5 2.238-5 5v15.748h-19.737v-15.748c0-2.762-2.238-5-5-5s-5 2.238-5 5v42.971c0 2.761 2.238 5 5 5s5-2.238 5-5v-17.223h19.737v17.223c0 2.761 2.238 5 5 5z"/><path d="m354.901 408.005c2.762 0 5-2.238 5-5s-2.238-5-5-5h-17.941c-2.762 0-5 2.238-5 5v42.578c0 2.761 2.238 5 5 5h17.941c2.762 0 5-2.238 5-5s-2.238-5-5-5h-12.941v-11.29h11.619c2.762 0 5-2.238 5-5s-2.238-5-5-5h-11.619v-11.29h12.941z"/><path d="m202.454 424.098c0 14.604 11.881 26.485 26.485 26.485s26.485-11.881 26.485-26.485-11.881-26.485-26.485-26.485-26.485 11.881-26.485 26.485zm42.971 0c0 9.091-7.395 16.486-16.486 16.486s-16.486-7.395-16.486-16.486c0-9.09 7.395-16.486 16.486-16.486s16.486 7.396 16.486 16.486z"/><path d="m342.226 282.099 17.632-16.208c2.033-1.868 2.166-5.031.297-7.064-1.869-2.034-5.032-2.165-7.064-.297l-14.52 13.347v-10.204c0-2.761-2.238-5-5-5s-5 2.238-5 5v42.579c0 2.761 2.238 5 5 5s5-2.238 5-5v-11.783l15.944 15.382c.971.936 2.222 1.401 3.471 1.401 1.309 0 2.618-.512 3.599-1.528 1.917-1.987 1.86-5.152-.127-7.07z"/><path d="m201.117 256.847c-2.707-.54-5.341 1.221-5.88 3.929l-5.182 26.041-8.2-26.615c-.813-2.641-3.615-4.119-6.25-3.307-1.73.532-2.945 1.923-3.36 3.557l-8.161 26.367-5.166-26.116c-.537-2.71-3.173-4.468-5.875-3.936-2.709.536-4.471 3.167-3.935 5.875 0 0 8.408 42.413 8.489 42.642.844 2.377 3.098 3.967 5.617 3.967h.042c2.536-.019 4.788-1.644 5.602-4.046.015-.042 8.219-26.548 8.219-26.548s8.184 26.561 8.208 26.627c.844 2.377 3.098 3.967 5.617 3.967h.042c2.536-.019 4.788-1.644 5.602-4.046.07-.206 8.499-42.479 8.499-42.479.539-2.707-1.219-5.34-3.928-5.879z"/><path d="m314.832 272.739c0-8.859-7.488-16.066-16.692-16.066 0 0-11.314 0-11.328 0-2.715-.001-4.999 2.276-4.999 5v42.579c0 2.761 2.238 5 5 5s5-2.238 5-5v-12.907l14.267 16.211c.988 1.123 2.368 1.696 3.755 1.696 1.173 0 2.352-.41 3.302-1.247 2.072-1.824 2.274-4.983.449-7.056l-11.175-12.697c7.137-1.824 12.421-8.078 12.421-15.513zm-16.692 6.065c-1.457 0-3.976.011-6.263.021-.012-2.235-.022-4.68-.022-6.087 0-1.194-.006-3.725-.013-6.066h6.299c3.628 0 6.692 2.778 6.692 6.066-.001 3.289-3.065 6.066-6.693 6.066z"/><path d="m241.198 256.673c-14.495 0-26.289 11.794-26.289 26.289 0 14.496 11.793 26.289 26.289 26.289s26.288-11.793 26.288-26.289c0-14.495-11.793-26.289-26.288-26.289zm0 42.579c-8.982 0-16.289-7.307-16.289-16.289s7.307-16.289 16.289-16.289c8.981 0 16.288 7.307 16.288 16.289s-7.307 16.289-16.288 16.289z"/><path d="m324.527 375.656c.817 2.435 3.086 4.065 5.651 4.065h.03c2.578-.014 4.844-1.67 5.64-4.122.019-.057.036-.114.053-.172l7.09-24.869 4.733 24.769c.519 2.713 3.134 4.489 5.849 3.973 2.713-.519 4.491-3.138 3.973-5.85l-7.938-41.534c-.54-2.65-2.804-4.609-5.504-4.762-2.692-.143-5.171 1.536-6.008 4.109-.02.059-.037.116-.054.175l-7.931 27.823-8.223-27.874c-.018-.06-.037-.12-.057-.18-.863-2.565-3.346-4.236-6.053-4.047-2.701.182-4.943 2.166-5.464 4.879l-7.484 41.462c-.49 2.717 1.315 5.317 4.033 5.809 2.71.478 5.317-1.314 5.808-4.033l4.455-24.686 7.344 24.89c.019.058.037.116.057.175z"/><path d="m176.495 337.455c2.762 0 5-2.238 5-5s-2.238-5-5-5h-17.13c-2.762 0-5 2.238-5 5v42.266c0 2.762 2.238 5 5 5 2.761 0 5-2.238 5-5v-16.533h10.77c2.762 0 5-2.238 5-5s-2.238-5-5-5h-10.77v-10.733z"/><path d="m199.881 327.143c-2.723 0-5 2.28-5 5v42.578c0 2.762 2.238 5 5 5s5-2.238 5-5v-12.907l14.267 16.211c.988 1.123 2.368 1.696 3.755 1.696 1.173 0 2.351-.41 3.302-1.247 2.072-1.824 2.274-4.983.449-7.056l-11.174-12.697c7.138-1.823 12.421-8.076 12.421-15.512 0-8.859-7.487-16.066-16.691-16.066 0 0-11.315 0-11.329 0zm18.02 16.066c0 3.288-3.064 6.065-6.691 6.065-1.457 0-3.977.011-6.264.021-.012-2.235-.022-4.679-.022-6.087 0-1.194-.006-3.724-.013-6.066h6.3c3.626.001 6.69 2.779 6.69 6.067z"/><path d="m239.038 353.432c0 14.495 11.793 26.289 26.289 26.289s26.289-11.794 26.289-26.289c0-14.496-11.793-26.289-26.289-26.289s-26.289 11.794-26.289 26.289zm42.578 0c0 8.982-7.307 16.289-16.289 16.289s-16.289-7.307-16.289-16.289 7.307-16.29 16.289-16.29 16.289 7.308 16.289 16.29z"/></g></g></svg>